STARTFONT 2.3
FONT -FontForge-Syncopate-Book-R-Normal--32-320-72-72-P-239-ISO10646-1
SIZE 32 72 72  2
FONTBOUNDINGBOX 59 37 -6 -8
COMMENT "Generated by fontforge, http://fontforge.sourceforge.net"
COMMENT "Copyright (c) 2010 by Brian J. Bonislawsky DBA Astigmatic (AOETI). All rights reserved. Available under the Apache 2.0 licence.http://www.apache.org/licenses/LICENSE-2.0.html"
STARTPROPERTIES 40
FOUNDRY "FontForge"
FAMILY_NAME "Syncopate"
WEIGHT_NAME "Book"
SLANT "R"
SETWIDTH_NAME "Normal"
ADD_STYLE_NAME ""
PIXEL_SIZE 32
POINT_SIZE 320
RESOLUTION_X 72
RESOLUTION_Y 72
SPACING "P"
AVERAGE_WIDTH 239
CHARSET_REGISTRY "ISO10646"
CHARSET_ENCODING "1"
FONTNAME_REGISTRY ""
CHARSET_COLLECTIONS "ISO8859-2 ISO8859-9 ISO8859-4 ISO10646-1"
BITS_PER_PIXEL 2
FONT_NAME "Syncopate-Regular"
FACE_NAME "Syncopate Regular"
COPYRIGHT "Copyright (c) 2010 by Brian J. Bonislawsky DBA Astigmatic (AOETI). All rights reserved. Available under the Apache 2.0 licence.http://www.apache.org/licenses/LICENSE-2.0.html"
FONT_VERSION "001.001"
FONT_ASCENT 26
FONT_DESCENT 6
UNDERLINE_POSITION -3
UNDERLINE_THICKNESS 2
X_HEIGHT 21
CAP_HEIGHT 21
RAW_ASCENT 799
RAW_DESCENT 200
NORM_SPACE 12
RELATIVE_WEIGHT 40
RELATIVE_SETWIDTH 70
SUPERSCRIPT_X 0
SUPERSCRIPT_Y 9
SUPERSCRIPT_SIZE 6
SUBSCRIPT_X 0
SUBSCRIPT_Y 9
SUBSCRIPT_SIZE 6
AVG_LOWERCASE_WIDTH 274
AVG_UPPERCASE_WIDTH 262
ENDPROPERTIES
CHARS 370
STARTCHAR space
ENCODING 32
SWIDTH 375 0
DWIDTH 12 0
BBX 1 1 0 0
BITMAP
00
ENDCHAR
STARTCHAR exclam
ENCODING 33
SWIDTH 274 0
DWIDTH 9 0
BBX 3 22 3 0
BITMAP
B8
B8
B8
B8
B8
B8
B4
B4
B4
B4
74
74
74
70
70
70
00
00
00
B8
B8
B8
ENDCHAR
STARTCHAR quotedbl
ENCODING 34
SWIDTH 290 0
DWIDTH 9 0
BBX 7 6 1 16
BITMAP
F43C
B43C
B43C
B43C
B03C
B02C
ENDCHAR
STARTCHAR numbersign
ENCODING 35
SWIDTH 701 0
DWIDTH 22 0
BBX 20 22 1 0
BITMAP
0001D001D0
0002C002C0
0002800280
0003800380
0007400740
0007000700
0BFFFFFFFE
000E000E00
001D000D00
001D001D00
002C002C00
0028002800
0038003800
0074003400
7FFFFFFFF0
00B000B000
00E000E000
00D000E000
01D001D000
01C001C000
02C002C000
0380038000
ENDCHAR
STARTCHAR dollar
ENCODING 36
SWIDTH 767 0
DWIDTH 25 0
BBX 20 26 2 -2
BITMAP
00002C0000
00002C0000
006BFFEA40
06FFFFFFF4
1FE42C05A4
3E002C0000
78002C0000
78002C0000
78002C0000
3E002C0000
1FE42C0000
02FFAC0000
001BFF9000
00006FFE40
00002C6FE0
00002C01F8
00002C002E
00002C000F
00002C000F
00002C001E
64002C007D
7F942C16F8
1BFFFFFFD0
006BFFE900
00002C0000
00002C0000
ENDCHAR
STARTCHAR percent
ENCODING 37
SWIDTH 992 0
DWIDTH 32 0
BBX 28 22 1 0
BITMAP
01BF9000002D00
0B807800007800
1D000E0001F000
3C00074003C000
780007800B4000
740003802E0000
78000780780000
3C000740F00000
1D000E03D00000
0B80780B400000
01BF901E000000
0000007C06FE40
000000F02E41F0
000002D078003C
00000B80F0001D
00001E01E0000E
00003C01E0000F
0000F401E0000E
0002D000F0001D
0007800078003C
001F00001E41F0
003C000006FE40
ENDCHAR
STARTCHAR ampersand
ENCODING 38
SWIDTH 926 0
DWIDTH 30 0
BBX 25 22 2 0
BITMAP
0001BFE4000000
002FFFFF400000
00BE401BC00000
00F40002D00000
01E00002D00000
00E00007800000
00B0002E000000
007801F8000000
002E2F80000000
000BF800000000
002FE000000000
01F8B800000000
0B802F40000B40
2E0007D0000F00
3C0001F8001E00
7400002F402D00
74000007E07800
7C000000B9F000
3E0000002FC000
1FE50015BFE000
02FFFFFFE4BD00
001AFFE9001B80
ENDCHAR
STARTCHAR quotesingle
ENCODING 39
SWIDTH 140 0
DWIDTH 4 0
BBX 3 6 1 16
BITMAP
F4
B4
B4
B4
B0
B0
ENDCHAR
STARTCHAR parenleft
ENCODING 40
SWIDTH 420 0
DWIDTH 13 0
BBX 8 26 2 -2
BITMAP
0009
002F
00BC
01F0
03D0
0B80
0F00
1E00
2D00
3C00
7800
7800
7800
7800
7800
7800
3C00
2D00
1E00
0F00
0B80
03D0
01F0
00BC
002F
0009
ENDCHAR
STARTCHAR parenright
ENCODING 41
SWIDTH 420 0
DWIDTH 13 0
BBX 8 26 3 -2
BITMAP
2400
7D00
1F00
0B80
02E0
01F0
00B8
007C
003D
002E
001E
001E
000F
000F
001E
001E
002E
003D
007C
00B8
01F0
02E0
0B80
1F00
7D00
2400
ENDCHAR
STARTCHAR asterisk
ENCODING 42
SWIDTH 503 0
DWIDTH 16 0
BBX 12 12 2 10
BITMAP
002C00
002C00
502805
BD286F
1FAAF4
01FF40
01FF40
1FAAF4
B9286F
502805
002C00
002C00
ENDCHAR
STARTCHAR plus
ENCODING 43
SWIDTH 634 0
DWIDTH 20 0
BBX 16 16 2 3
BITMAP
0002C000
0002C000
0002C000
0002C000
0002C000
0002C000
0002C000
7FFFFFFE
7FFFFFFE
0002C000
0002C000
0002C000
0002C000
0002C000
0002C000
0002C000
ENDCHAR
STARTCHAR comma
ENCODING 44
SWIDTH 185 0
DWIDTH 6 0
BBX 4 7 1 -4
BITMAP
3D
7D
7C
B8
B4
F0
E0
ENDCHAR
STARTCHAR hyphen
ENCODING 45
SWIDTH 540 0
DWIDTH 17 0
BBX 13 2 2 10
BITMAP
7FFFFF80
7FFFFF80
ENDCHAR
STARTCHAR period
ENCODING 46
SWIDTH 185 0
DWIDTH 6 0
BBX 4 3 1 0
BITMAP
7D
7D
7D
ENDCHAR
STARTCHAR slash
ENCODING 47
SWIDTH 500 0
DWIDTH 16 0
BBX 12 23 2 -1
BITMAP
00000F
00001E
00002C
000078
0000B0
0001E0
0002D0
000380
000B40
000F00
001D00
003C00
007400
00F000
01E000
02C000
078000
0B4000
1E0000
2D0000
380000
B40000
F00000
ENDCHAR
STARTCHAR zero
ENCODING 48
SWIDTH 833 0
DWIDTH 27 0
BBX 23 22 2 0
BITMAP
0001BFE90000
002FFFFFD000
01FE501BF800
07E400007E00
0F8000000F80
2E00000003D0
3C00000001E0
B800000000F0
B400000000B4
F00000000078
F00000000078
F00000000078
F00000000078
B400000000B4
B800000000F0
3C00000001E0
2E00000003D0
0F8000000F80
07E400007E00
01FE501BF800
002FFFFFD000
0001BFE90000
ENDCHAR
STARTCHAR one
ENCODING 49
SWIDTH 339 0
DWIDTH 11 0
BBX 7 22 0 0
BITMAP
16FC
FFFC
E93C
003C
003C
003C
003C
003C
003C
003C
003C
003C
003C
003C
003C
003C
003C
003C
003C
003C
003C
003C
ENDCHAR
STARTCHAR two
ENCODING 50
SWIDTH 728 0
DWIDTH 23 0
BBX 21 22 1 0
BITMAP
006BFFA40000
1BFFFFFF4000
7F94005BE000
60000001F800
000000003D00
000000001E00
000000000F00
000000000F00
000000001E00
000000003C00
00000000B400
00000002D000
0000001F4000
000000BD0000
000007E00000
00002F400000
0001F8000000
001F90000000
01BD00000000
0BE000000000
7FFFFFFFFF40
BFFFFFFFFF40
ENDCHAR
STARTCHAR three
ENCODING 51
SWIDTH 726 0
DWIDTH 23 0
BBX 20 22 1 0
BITMAP
006BFFA400
1BFFFFFF80
7F90005BF0
64000001B8
000000003C
000000002C
000000003C
00000001B4
0000016BD0
0007FFF900
0007FFF900
0000056FE0
00000001B8
000000002E
000000000F
000000000F
000000001E
000000002E
90000001BC
BE50005BF0
2FFFFFFF80
01AFFFA400
ENDCHAR
STARTCHAR four
ENCODING 52
SWIDTH 769 0
DWIDTH 25 0
BBX 23 22 1 0
BITMAP
0000002FC000
000000BBC000
000002E2C000
00000B82C000
00002E02C000
0000BC02C000
0002F002C000
000BC002C000
002F0002C000
00BC0002C000
02F00002C000
0BC00002C000
2F000002C000
7C000002C000
FFFFFFFFFFF8
FFFFFFFFFFF8
00000002C000
00000002C000
00000002C000
00000002C000
00000002C000
00000002C000
ENDCHAR
STARTCHAR five
ENCODING 53
SWIDTH 738 0
DWIDTH 24 0
BBX 20 22 2 0
BITMAP
7FFFFFFFF0
7FFFFFFFF0
7800000000
7800000000
7800000000
7800000000
7800000000
7800000000
7800000000
7EBFFFA400
7FFFFFFF40
7940016FE0
00000001F8
000000003D
000000001E
000000001E
000000001E
000000003D
90000001F8
FE50016FE0
6FFFFFFF40
01AFFE9400
ENDCHAR
STARTCHAR six
ENCODING 54
SWIDTH 772 0
DWIDTH 25 0
BBX 22 22 2 0
BITMAP
0001AFFE9400
001FFFFFFD00
00BE50016900
03E000000000
0F4000000000
2E0000000000
3C0000000000
780000000000
B401BFFA4000
B46FFFFFF400
F6FE4006FE00
FFD000001F40
FE00000007C0
B400000002D0
B400000002D0
7800000002D0
3D00000003D0
1F0000000780
0BD000002F40
02FD4006FD00
006FFFFFE000
0006BFF90000
ENDCHAR
STARTCHAR seven
ENCODING 55
SWIDTH 669 0
DWIDTH 21 0
BBX 21 22 0 0
BITMAP
FFFFFFFFFF40
FFFFFFFFFF40
000000002E00
000000003C00
00000000B400
00000001E000
00000003D000
0000000B8000
0000001F0000
0000003D0000
000000B80000
000000F00000
000002D00000
000007C00000
00000F400000
00002E000000
00007C000000
0000F4000000
0002E0000000
0003D0000000
000B80000000
001F00000000
ENDCHAR
STARTCHAR eight
ENCODING 56
SWIDTH 793 0
DWIDTH 25 0
BBX 23 22 1 0
BITMAP
0006BFFA4000
007FFFFFF800
01F94005BF00
07D000000B80
0B40000003C0
0B40000003C0
07C000000780
02F400006E00
007F941BF400
0006FFFF4000
0006FFFF9000
00BF941BFD00
07E400006F80
1F40000002F0
3D00000000B4
780000000078
7C0000000078
3D00000000F4
2F80000007E0
0BF94005BF80
01BFFFFFFD00
0016BFFA5000
ENDCHAR
STARTCHAR nine
ENCODING 57
SWIDTH 776 0
DWIDTH 25 0
BBX 22 22 1 0
BITMAP
001AFFE40000
01BFFFFF9000
07F9001BF400
1F4000007D00
3D0000001F40
780000000780
B400000003C0
B400000002D0
7800000002E0
3D0000000BE0
2F4000007FE0
0BE5001BF5E0
01FFFFFF81E0
001AFFE402D0
0000000003D0
000000000780
000000000B40
000000002E00
00000001BC00
0A54005BE000
0BFFFFFF4000
016BFF940000
ENDCHAR
STARTCHAR colon
ENCODING 58
SWIDTH 245 0
DWIDTH 8 0
BBX 4 15 2 0
BITMAP
7D
7D
7D
00
00
00
00
00
00
00
00
00
7D
7D
7D
ENDCHAR
STARTCHAR semicolon
ENCODING 59
SWIDTH 234 0
DWIDTH 8 0
BBX 5 19 1 -4
BITMAP
1F40
1F40
1F40
0000
0000
0000
0000
0000
0000
0000
0000
0000
1F00
2E00
2E00
3D00
3C00
7800
B400
ENDCHAR
STARTCHAR less
ENCODING 60
SWIDTH 634 0
DWIDTH 20 0
BBX 16 15 2 3
BITMAP
00000006
000000BE
00001BF4
0001BE40
001BE400
01FD0000
1F900000
BD000000
1F900000
01FD0000
001BE400
0001BE40
00001BF4
000000BE
00000006
ENDCHAR
STARTCHAR equal
ENCODING 61
SWIDTH 634 0
DWIDTH 20 0
BBX 16 8 2 7
BITMAP
7FFFFFFE
7FFFFFFE
00000000
00000000
00000000
00000000
7FFFFFFE
7FFFFFFE
ENDCHAR
STARTCHAR greater
ENCODING 62
SWIDTH 634 0
DWIDTH 20 0
BBX 16 15 2 3
BITMAP
60000000
7E400000
1BE40000
01BF4000
0007F400
00006F80
000006F9
0000003F
000006F9
00006F80
0007F400
01BF4000
1BE40000
7E400000
60000000
ENDCHAR
STARTCHAR question
ENCODING 63
SWIDTH 568 0
DWIDTH 18 0
BBX 14 22 2 0
BITMAP
06FF9000
7FFFFE00
F9006F80
800007D0
000001E0
000000F0
000000F0
000001E0
000003D0
00001F80
0001BD00
006FE000
03FE0000
03D00000
03C00000
03C00000
00000000
00000000
00000000
03D00000
03D00000
03D00000
ENDCHAR
STARTCHAR at
ENCODING 64
SWIDTH 1016 0
DWIDTH 33 0
BBX 28 23 2 0
BITMAP
000006BFF94000
0001BFFFFFF400
000BF94006FF40
007F4000001BD0
01F800000001F4
07D0000000007C
0B8001BF97802D
1E000B906F401E
3D003D000B400F
7C00B4000F000F
7800F0000F000F
B801E0001E000F
B801E0001E001E
7801E0001D002C
7800F4007D00B4
3C007D02EE46D0
2E000BFA06FE00
0F400000000000
07D00000000000
01F90000000000
007FE50015B400
0007FFFFFFF400
00005BFFE94000
ENDCHAR
STARTCHAR A
ENCODING 65
SWIDTH 812 0
DWIDTH 26 0
BBX 24 22 1 0
BITMAP
000007D00000
00000FF00000
00001EB40000
00003D3C0000
0000782D0000
0000F00F0000
0001E00B4000
0003C003C000
00078002E000
000F0000F000
001E00007800
003C00003C00
00B400001E00
00F000000F00
02FFFFFFFF80
03FFFFFFFFC0
0B40000001E0
0F00000000F0
2E0000000078
3C000000003C
B8000000001E
F0000000000F
ENDCHAR
STARTCHAR B
ENCODING 66
SWIDTH 836 0
DWIDTH 27 0
BBX 22 22 3 0
BITMAP
7FFFFFFE9000
7FFFFFFFF800
78000001BE00
780000001F00
780000000B40
780000000B40
780000000B40
780000001F00
78000001BD00
7FFFFFFFE000
7FFFFFFFF800
780000016F40
7800000007C0
7800000002E0
7800000001E0
7800000001F0
7800000001F0
7800000001E0
7800000007D0
780000006F80
7FFFFFFFFE00
7FFFFFFFA000
ENDCHAR
STARTCHAR C
ENCODING 67
SWIDTH 869 0
DWIDTH 28 0
BBX 24 22 2 0
BITMAP
00006BFFE900
000BFFFFFFE4
00BFA40016FE
02F80000001A
0BD000000000
1F0000000000
3D0000000000
780000000000
B40000000000
B40000000000
F40000000000
F00000000000
B40000000000
B40000000000
780000000000
3D0000000000
1F0000000000
0BC000000000
02F80000000A
00BF940016FE
000BFFFFFFE4
00006BFFE900
ENDCHAR
STARTCHAR D
ENCODING 68
SWIDTH 910 0
DWIDTH 29 0
BBX 24 22 3 0
BITMAP
7FFFFFFA4000
7FFFFFFFF900
78000005BF80
7800000007E0
7800000001F4
78000000007C
78000000002D
78000000001E
78000000001F
78000000000F
78000000000F
78000000000F
78000000000F
78000000001F
78000000001E
78000000002D
78000000007C
7800000001F4
7800000007E0
78000005BF80
7FFFFFFFF900
7FFFFFFA5000
ENDCHAR
STARTCHAR E
ENCODING 69
SWIDTH 754 0
DWIDTH 24 0
BBX 19 22 3 0
BITMAP
7FFFFFFFF8
7FFFFFFFF8
7800000000
7800000000
7800000000
7800000000
7800000000
7800000000
7800000000
7FFFFFFFE0
7FFFFFFFE0
7800000000
7800000000
7800000000
7800000000
7800000000
7800000000
7800000000
7800000000
7800000000
7FFFFFFFF8
7FFFFFFFF8
ENDCHAR
STARTCHAR F
ENCODING 70
SWIDTH 687 0
DWIDTH 22 0
BBX 18 22 3 0
BITMAP
7FFFFFFFE0
7FFFFFFFE0
7800000000
7800000000
7800000000
7800000000
7800000000
7800000000
7800000000
7FFFFFFFC0
7FFFFFFFC0
7800000000
7800000000
7800000000
7800000000
7800000000
7800000000
7800000000
7800000000
7800000000
7800000000
7800000000
ENDCHAR
STARTCHAR G
ENCODING 71
SWIDTH 910 0
DWIDTH 29 0
BBX 25 22 2 0
BITMAP
00005AFFE90000
000BFFFFFFF900
007FE50016BF00
02F90000000600
0BD00000000000
1F400000000000
3D000000000000
78000000000000
B4000000000000
B4000000000000
F4000000000000
F400001FFFFF80
B400001FFFFF80
B8000000000780
7C000000000780
3D000000000780
1F400000000780
0BD00000000780
02F90000000780
007FE50005AF80
000BFFFFFFFE40
00005BFFFA5000
ENDCHAR
STARTCHAR H
ENCODING 72
SWIDTH 949 0
DWIDTH 30 0
BBX 24 22 3 0
BITMAP
78000000001E
78000000001E
78000000001E
78000000001E
78000000001E
78000000001E
78000000001E
78000000001E
78000000001E
7FFFFFFFFFFE
7FFFFFFFFFFE
78000000001E
78000000001E
78000000001E
78000000001E
78000000001E
78000000001E
78000000001E
78000000001E
78000000001E
78000000001E
78000000001E
ENDCHAR
STARTCHAR I
ENCODING 73
SWIDTH 287 0
DWIDTH 9 0
BBX 3 22 3 0
BITMAP
78
78
78
78
78
78
78
78
78
78
78
78
78
78
78
78
78
78
78
78
78
78
ENDCHAR
STARTCHAR J
ENCODING 74
SWIDTH 590 0
DWIDTH 19 0
BBX 16 22 0 0
BITMAP
0000002D
0000002D
0000002D
0000002D
0000002D
0000002D
0000002D
0000002D
0000002D
0000002D
0000002D
0000002D
0000002D
0000002D
0000002D
0000002D
0000003D
0000007C
000001F4
E5001BE0
FFFFFF80
1AFFE400
ENDCHAR
STARTCHAR K
ENCODING 75
SWIDTH 806 0
DWIDTH 26 0
BBX 22 22 3 0
BITMAP
780000001F80
78000000BD00
78000007E000
7800002F4000
780001F80000
78000BD00000
78007E000000
7806F4000000
782F80000000
79FD00000000
7FF000000000
79F800000000
782F40000000
7807E0000000
7801BD000000
78002F800000
780007F40000
780000BE0000
7800001FD000
78000002F800
780000007F40
780000000BE0
ENDCHAR
STARTCHAR L
ENCODING 76
SWIDTH 701 0
DWIDTH 22 0
BBX 19 22 3 0
BITMAP
7800000000
7800000000
7800000000
7800000000
7800000000
7800000000
7800000000
7800000000
7800000000
7800000000
7800000000
7800000000
7800000000
7800000000
7800000000
7800000000
7800000000
7800000000
7800000000
7800000000
7FFFFFFFF4
7FFFFFFFF4
ENDCHAR
STARTCHAR M
ENCODING 77
SWIDTH 1139 0
DWIDTH 36 0
BBX 30 22 3 0
BITMAP
7C000000000002E0
7E000000000007E0
7F40000000000BE0
7BC0000000001EE0
7AE0000000003DE0
78F400000000B4E0
787800000001E0E0
782D00000003D0E0
780F0000000B80E0
78078000001F00E0
7802D000002D00E0
7801F000007800E0
7800B80000F000E0
78003D0002D000E0
78001E00078000E0
78000B400F4000E0
780003C02E0000E0
780001E07C0000E0
780000B4B40000E0
7800007DE00000E0
7800002FC00000E0
7800000F400000E0
ENDCHAR
STARTCHAR N
ENCODING 78
SWIDTH 936 0
DWIDTH 30 0
BBX 24 22 3 0
BITMAP
7D000000002D
7F400000002D
7FD00000002D
7AF40000002D
78BC0000002D
782F0000002D
780BC000002D
7802F000002D
7800B800002D
78002E00002D
78000B80002D
780002E0002D
780000B8002D
7800003E002D
7800000F802D
78000003E02D
78000000F82D
780000007E2D
780000001F6D
7800000007FD
7800000001FD
78000000007D
ENDCHAR
STARTCHAR O
ENCODING 79
SWIDTH 983 0
DWIDTH 31 0
BBX 28 22 2 0
BITMAP
00006BFFA50000
001BFFFFFFD000
00BF94005BFD00
02F40000006F40
0BC000000007D0
1F0000000001F0
3D0000000000B8
7800000000007C
B400000000003C
B400000000002D
F400000000002D
F400000000002D
B400000000002D
B400000000003C
7800000000007C
3D0000000000B8
1F0000000001F0
0B8000000007D0
02F40000006F40
00BF94005BFD00
001BFFFFFFD000
00006BFFA50000
ENDCHAR
STARTCHAR P
ENCODING 80
SWIDTH 818 0
DWIDTH 26 0
BBX 22 22 3 0
BITMAP
7FFFFFFE9000
7FFFFFFFF800
78000005BF00
780000000B80
7800000003C0
7800000002D0
7800000002E0
7800000002E0
7800000002D0
7800000003C0
780000000B80
780000017F00
7FFFFFFFF800
7FFFFFFE9000
780000000000
780000000000
780000000000
780000000000
780000000000
780000000000
780000000000
780000000000
ENDCHAR
STARTCHAR Q
ENCODING 81
SWIDTH 983 0
DWIDTH 31 0
BBX 29 22 2 0
BITMAP
00006BFFA5000000
001BFFFFFFD00000
00BF94005BFD0000
02F40000006F4000
0BC000000007D000
1F0000000001F000
3D0000000000B800
7800000000007C00
B400000000003C00
B400000000002D00
F400000000002D00
F400000000002D00
B400000000002D00
B400000000003C00
7800000000007800
3D0000000000B400
1F0000009001F000
0B800001FE47D000
02F400006BFF4000
00BF94001AFFE500
001BFFFFFFD6FFC0
00006BFFA5001680
ENDCHAR
STARTCHAR R
ENCODING 82
SWIDTH 833 0
DWIDTH 27 0
BBX 22 22 3 0
BITMAP
7FFFFFFA4000
7FFFFFFFE400
78000016FD00
780000002F00
780000000F40
780000000B40
780000000B40
780000000B40
780000000F40
780000002F00
78000006FD00
7FFFFFFFF400
7FFFFFFE4000
7800001E0000
7800000B8000
78000003D000
78000001F400
780000007C00
780000002E00
780000000B80
7800000003D0
7800000001F0
ENDCHAR
STARTCHAR S
ENCODING 83
SWIDTH 787 0
DWIDTH 25 0
BBX 21 22 2 0
BITMAP
001AFFE50000
02FFFFFFE400
1FE50016FC00
3E0000001800
7C0000000000
780000000000
7C0000000000
2E0000000000
0BE400000000
01FF94000000
001AFF900000
00001AFE4000
0000001BF400
000000007E00
000000000F40
000000000780
000000000780
000000000B80
640000002F40
7F940016FD00
1BFFFFFFE400
006BFFE90000
ENDCHAR
STARTCHAR T
ENCODING 84
SWIDTH 708 0
DWIDTH 23 0
BBX 22 22 0 0
BITMAP
7FFFFFFFFFF0
7FFFFFFFFFF0
00000B400000
00000B400000
00000B400000
00000B400000
00000B400000
00000B400000
00000B400000
00000B400000
00000B400000
00000B400000
00000B400000
00000B400000
00000B400000
00000B400000
00000B400000
00000B400000
00000B400000
00000B400000
00000B400000
00000B400000
ENDCHAR
STARTCHAR U
ENCODING 85
SWIDTH 891 0
DWIDTH 29 0
BBX 22 22 3 0
BITMAP
B400000000F0
B400000000F0
B400000000F0
B400000000F0
B400000000F0
B400000000F0
B400000000F0
B400000000F0
B400000000F0
B400000000F0
B400000000F0
B400000000F0
B400000000F0
B400000000F0
B400000000F0
B400000000F0
7800000001F0
3E00000003D0
1F8000001FC0
07F94006FF00
01BFFFFFF800
0006BFFA4000
ENDCHAR
STARTCHAR V
ENCODING 86
SWIDTH 817 0
DWIDTH 26 0
BBX 24 22 1 0
BITMAP
F4000000000F
78000000002E
3D000000003C
1E00000000B8
0F40000000F0
0780000002E0
03D0000003C0
01E000000B80
00F400000F00
00B800001E00
003C00003C00
002E00007800
000F0000F400
000B8001E000
0003C003D000
0002E0078000
0000F00F4000
0000B81E0000
00003C3D0000
00002E780000
00000FF40000
00000BE00000
ENDCHAR
STARTCHAR W
ENCODING 87
SWIDTH 1266 0
DWIDTH 41 0
BBX 38 22 1 0
BITMAP
B80000001F80000000F0
7C0000002FC0000001E0
2D0000003ED0000002D0
1E00000079F0000007C0
0F000000B4F400000B80
0B400000F07800000F00
07C00001E03C00001E00
03D00003D02D00002D00
01E00007801E00003C00
00F0000B400F0000B800
00B4000F000B4000F400
0078001E0007C001E000
003D002D0002D002D000
002E003C0001E003C000
000F00780000F0078000
000B40F40000B40F4000
000781E00000781F0000
0003C2D000003C2D0000
0002E3C000002D3C0000
0000F78000000F780000
0000BF4000000BF40000
00007F00000007F00000
ENDCHAR
STARTCHAR X
ENCODING 88
SWIDTH 821 0
DWIDTH 26 0
BBX 24 22 1 0
BITMAP
2E00000000BC
0B80000001F0
02E0000007C0
00B800001F40
002E00007D00
000F8001F400
0003D007D000
0000F40F4000
00007D3D0000
00001FF80000
000007E00000
00000BF40000
00002E7C0000
0000B81F0000
0002E00BC000
000BC002E000
001F0000B800
007C00002E00
01F400000B80
07D0000002E0
1F40000000F4
7D000000003D
ENDCHAR
STARTCHAR Y
ENCODING 89
SWIDTH 763 0
DWIDTH 24 0
BBX 22 22 1 0
BITMAP
7800000001E0
2E00000007C0
0B4000000F40
03D000002D00
01F00000B800
00780001F000
002E0007C000
000F400F4000
0003D02E0000
0001F0B80000
0000B9F00000
00002FD00000
00000F400000
00000B400000
00000B400000
00000B400000
00000B400000
00000B400000
00000B400000
00000B400000
00000B400000
00000B400000
ENDCHAR
STARTCHAR Z
ENCODING 90
SWIDTH 728 0
DWIDTH 23 0
BBX 20 22 2 0
BITMAP
7FFFFFFFFC
7FFFFFFFF8
00000002E0
0000000780
0000001F00
0000007D00
000000F400
000002D000
00000B8000
00002E0000
00007C0000
0001F00000
0003D00000
000F400000
002E000000
00B8000000
02E0000000
07C0000000
1F40000000
3D00000000
BFFFFFFFFD
BFFFFFFFFD
ENDCHAR
STARTCHAR bracketleft
ENCODING 91
SWIDTH 409 0
DWIDTH 13 0
BBX 8 25 4 -2
BITMAP
FFFD
FFFD
F000
F000
F000
F000
F000
F000
F000
F000
F000
F000
F000
F000
F000
F000
F000
F000
F000
F000
F000
F000
F000
FFFD
FFFD
ENDCHAR
STARTCHAR backslash
ENCODING 92
SWIDTH 500 0
DWIDTH 16 0
BBX 12 23 2 -1
BITMAP
F00000
B40000
380000
2D0000
1E0000
0B4000
078000
02C000
01E000
00F000
007400
003C00
001D00
000F00
000B40
000380
0002D0
0001E0
0000B0
000078
00002C
00001E
00000F
ENDCHAR
STARTCHAR bracketright
ENCODING 93
SWIDTH 409 0
DWIDTH 13 0
BBX 8 25 1 -2
BITMAP
7FFF
7FFF
000F
000F
000F
000F
000F
000F
000F
000F
000F
000F
000F
000F
000F
000F
000F
000F
000F
000F
000F
000F
000F
7FFF
7FFF
ENDCHAR
STARTCHAR asciicircum
ENCODING 94
SWIDTH 459 0
DWIDTH 15 0
BBX 13 9 1 13
BITMAP
003E0000
00BF4000
01E3C000
02D1E000
0780F000
0F007800
2D002D00
7C001F00
B4000B40
ENDCHAR
STARTCHAR underscore
ENCODING 95
SWIDTH 500 0
DWIDTH 16 0
BBX 16 2 0 -4
BITMAP
FFFFFFFF
FFFFFFFF
ENDCHAR
STARTCHAR grave
ENCODING 96
SWIDTH 527 0
DWIDTH 17 0
BBX 8 5 3 18
BITMAP
6000
FD00
2FD0
01FD
0018
ENDCHAR
STARTCHAR a
ENCODING 97
SWIDTH 888 0
DWIDTH 28 0
BBX 23 22 2 0
BITMAP
0006BFFE9000
01BFFFFFFD00
0FE94005AF80
0900000006E0
0000000000B4
000000000038
00000000003C
00000000003C
00000056ABFC
0001AFFFFFFC
006FFFA9503C
07FE5000003C
1F900000003C
7D000000003C
B4000000003C
F0000000003C
F0000000003C
F400000000BC
7D0000001BFC
2FD4005AFF7C
0BFFFFFFE43C
006FFFA5003C
ENDCHAR
STARTCHAR b
ENCODING 98
SWIDTH 836 0
DWIDTH 27 0
BBX 22 22 3 0
BITMAP
7FFFFFFE9000
7FFFFFFFF800
78000001BE00
780000001F00
780000000B40
780000000B40
780000000B40
780000001F00
78000001BD00
7FFFFFFFE000
7FFFFFFFF800
780000016F40
7800000007C0
7800000002E0
7800000001E0
7800000001F0
7800000001F0
7800000001E0
7800000007D0
780000006F80
7FFFFFFFFE00
7FFFFFFFA000
ENDCHAR
STARTCHAR c
ENCODING 99
SWIDTH 869 0
DWIDTH 28 0
BBX 24 22 2 0
BITMAP
00006BFFE900
000BFFFFFFE4
00BFA40016FE
02F80000001A
0BD000000000
1F0000000000
3D0000000000
780000000000
B40000000000
B40000000000
F40000000000
F00000000000
B40000000000
B40000000000
780000000000
3D0000000000
1F0000000000
0BC000000000
02F80000000A
00BF940016FE
000BFFFFFFE4
00006BFFE900
ENDCHAR
STARTCHAR d
ENCODING 100
SWIDTH 910 0
DWIDTH 29 0
BBX 24 22 3 0
BITMAP
7FFFFFFA4000
7FFFFFFFF900
78000005BF80
7800000007E0
7800000001F4
78000000007C
78000000002D
78000000001E
78000000001F
78000000000F
78000000000F
78000000000F
78000000000F
78000000001F
78000000001E
78000000002D
78000000007C
7800000001F4
7800000007E0
78000005BF80
7FFFFFFFF900
7FFFFFFA5000
ENDCHAR
STARTCHAR e
ENCODING 101
SWIDTH 910 0
DWIDTH 29 0
BBX 25 22 2 0
BITMAP
00006BFE900000
001BFFFFFD0000
00BF94016FD000
02F8000006F400
0BD00000007C00
1F000000002E00
3D000000000F00
7C000000000740
B4000000000380
B40000000003C0
FFFFFFFFFFFFC0
FFFFFFFFFFFFC0
B4000000000000
B4000000000000
78000000000000
3D000000000000
1F000000000000
0BD00000000000
02F80000001900
007FA40016FD00
000BFFFFFFE400
00006BFFE90000
ENDCHAR
STARTCHAR f
ENCODING 102
SWIDTH 817 0
DWIDTH 26 0
BBX 22 22 3 0
BITMAP
001AFFFFFFD0
01FFFFFFFFD0
0BF940000000
1F8000000000
3D0000000000
7C0000000000
780000000000
780000000000
780000000000
780000000000
7FFFFFFFFFC0
7FFFFFFFFFC0
780000000000
780000000000
780000000000
780000000000
780000000000
780000000000
780000000000
780000000000
780000000000
780000000000
ENDCHAR
STARTCHAR g
ENCODING 103
SWIDTH 910 0
DWIDTH 29 0
BBX 25 22 2 0
BITMAP
00005AFFE90000
000BFFFFFFF900
007FE50016BF00
02F90000000600
0BD00000000000
1F400000000000
3D000000000000
78000000000000
B4000000000000
B4000000000000
F4000000000000
F400001FFFFF80
B400001FFFFF80
B8000000000780
7C000000000780
3D000000000780
1F400000000780
0BD00000000780
02F90000000780
007FE50005AF80
000BFFFFFFFE40
00005BFFFA5000
ENDCHAR
STARTCHAR h
ENCODING 104
SWIDTH 949 0
DWIDTH 30 0
BBX 24 22 3 0
BITMAP
78000000001E
78000000001E
78000000001E
78000000001E
78000000001E
78000000001E
78000000001E
78000000001E
78000000001E
7FFFFFFFFFFE
7FFFFFFFFFFE
78000000001E
78000000001E
78000000001E
78000000001E
78000000001E
78000000001E
78000000001E
78000000001E
78000000001E
78000000001E
78000000001E
ENDCHAR
STARTCHAR i
ENCODING 105
SWIDTH 287 0
DWIDTH 9 0
BBX 3 22 3 0
BITMAP
78
78
78
78
78
78
78
78
78
78
78
78
78
78
78
78
78
78
78
78
78
78
ENDCHAR
STARTCHAR j
ENCODING 106
SWIDTH 590 0
DWIDTH 19 0
BBX 16 22 0 0
BITMAP
0000002D
0000002D
0000002D
0000002D
0000002D
0000002D
0000002D
0000002D
0000002D
0000002D
0000002D
0000002D
0000002D
0000002D
0000002D
0000002D
0000003D
0000007C
000001F4
E5001BE0
FFFFFF80
1AFFE400
ENDCHAR
STARTCHAR k
ENCODING 107
SWIDTH 867 0
DWIDTH 28 0
BBX 23 22 3 0
BITMAP
7800000002D0
7800000003C0
7800000007C0
780000000B40
780000001F00
780000007D00
78000001F400
7800000BD000
7800007E4000
78005BF40000
7FFFFE400000
7FFFFFE40000
780056FE4000
7800001BE000
78000001FD00
780000002F00
780000000B80
7800000003D0
7800000001F0
7800000000F4
7800000000B8
780000000078
ENDCHAR
STARTCHAR l
ENCODING 108
SWIDTH 709 0
DWIDTH 23 0
BBX 20 22 3 0
BITMAP
7800000000
7800000000
7800000000
7800000000
7800000000
7800000000
7800000000
7800000000
7800000000
7800000000
7800000000
7800000000
7800000000
7800000000
7800000000
7800000000
7800000000
3C00000000
2E00000000
1FD4000000
07FFFFFFFD
006BFFFFFD
ENDCHAR
STARTCHAR m
ENCODING 109
SWIDTH 1246 0
DWIDTH 40 0
BBX 34 22 3 0
BITMAP
7801BF900006FF9000
781FFFFD007FFFF800
78BE406F42F9017E00
7BE00007DF80000F40
7F400002FD000007C0
7D000001F4000003D0
78000001E0000002D0
78000000F0000002D0
78000000F0000002D0
78000000F0000002D0
78000000F0000002D0
78000000F0000002D0
78000000F0000002D0
78000000F0000002D0
78000000F0000002D0
78000000F0000002D0
78000000F0000002D0
78000000F0000002D0
78000000F0000002D0
78000000F0000002D0
78000000F0000002D0
78000000F0000002D0
ENDCHAR
STARTCHAR n
ENCODING 110
SWIDTH 933 0
DWIDTH 30 0
BBX 24 22 3 0
BITMAP
780006FFE400
7801BFFFFF40
781FF9001BE0
79FE400001F4
7FE40000007C
7F400000003C
78000000002D
78000000002D
78000000002D
78000000002D
78000000002D
78000000002D
78000000002D
78000000002D
78000000002D
78000000002D
78000000002D
78000000002D
78000000002D
78000000002D
78000000002D
78000000002D
ENDCHAR
STARTCHAR o
ENCODING 111
SWIDTH 983 0
DWIDTH 31 0
BBX 28 22 2 0
BITMAP
00006BFFA50000
001BFFFFFFD000
00BF94005BFD00
02F40000006F40
0BC000000007D0
1F0000000001F0
3D0000000000B8
7800000000007C
B400000000003C
B400000000002D
F400000000002D
F400000000002D
B400000000002D
B400000000003C
7800000000007C
3D0000000000B8
1F0000000001F0
0B8000000007D0
02F40000006F40
00BF94005BFD00
001BFFFFFFD000
00006BFFA50000
ENDCHAR
STARTCHAR p
ENCODING 112
SWIDTH 818 0
DWIDTH 26 0
BBX 22 22 3 0
BITMAP
7FFFFFFE9000
7FFFFFFFF800
78000005BF00
780000000B80
7800000003C0
7800000002D0
7800000002E0
7800000002E0
7800000002D0
7800000003C0
780000000B80
780000017F00
7FFFFFFFF800
7FFFFFFE9000
780000000000
780000000000
780000000000
780000000000
780000000000
780000000000
780000000000
780000000000
ENDCHAR
STARTCHAR q
ENCODING 113
SWIDTH 983 0
DWIDTH 31 0
BBX 29 22 2 0
BITMAP
00006BFFA5000000
001BFFFFFFD00000
00BF94005BFD0000
02F40000006F4000
0BC000000007D000
1F0000000001F000
3D0000000000B800
7800000000007C00
B400000000003C00
B400000000002D00
F400000000002D00
F400000000002D00
B400000000002D00
B400000000003C00
7800000000007800
3D0000000000B400
1F0000000001F000
0B8000000007D000
02F40000006F4000
00BF94005BFFA500
001BFFFFFFEBFFC0
00006BFFA5005A80
ENDCHAR
STARTCHAR r
ENCODING 114
SWIDTH 609 0
DWIDTH 20 0
BBX 17 22 3 0
BITMAP
78001BFF40
7802FFFF80
782FE40140
78BD000000
7BE0000000
7F40000000
7D00000000
7800000000
7800000000
7800000000
7800000000
7800000000
7800000000
7800000000
7800000000
7800000000
7800000000
7800000000
7800000000
7800000000
7800000000
7800000000
ENDCHAR
STARTCHAR s
ENCODING 115
SWIDTH 787 0
DWIDTH 25 0
BBX 21 22 2 0
BITMAP
001AFFE50000
02FFFFFFE400
1FE50016FC00
3E0000001800
7C0000000000
780000000000
7C0000000000
2E0000000000
0BE400000000
01FF94000000
001AFF900000
00001AFE4000
0000001BF400
000000007E00
000000000F40
000000000780
000000000780
000000000B80
640000002F40
7F940016FD00
1BFFFFFFE400
006BFFE90000
ENDCHAR
STARTCHAR t
ENCODING 116
SWIDTH 708 0
DWIDTH 23 0
BBX 22 22 0 0
BITMAP
7FFFFFFFFFF0
7FFFFFFFFFF0
00000B400000
00000B400000
00000B400000
00000B400000
00000B400000
00000B400000
00000B400000
00000B400000
00000B400000
00000B400000
00000B400000
00000B400000
00000B400000
00000B400000
00000B400000
00000B400000
00000B400000
00000B400000
00000B400000
00000B400000
ENDCHAR
STARTCHAR u
ENCODING 117
SWIDTH 931 0
DWIDTH 30 0
BBX 24 22 3 0
BITMAP
78000000002D
78000000002D
78000000002D
78000000002D
78000000002D
78000000002D
78000000002D
78000000002D
78000000002D
78000000002D
78000000002D
78000000002D
78000000002D
78000000002D
78000000002D
78000000003D
7800000001FD
3D0000001BFD
1F000001BE2D
0BE4016FE42D
02FFFFFE402D
001BFE90002D
ENDCHAR
STARTCHAR v
ENCODING 118
SWIDTH 817 0
DWIDTH 26 0
BBX 24 22 1 0
BITMAP
F4000000000F
78000000002E
3D000000003C
1E00000000B8
0F40000000F0
0780000002E0
03D0000003C0
01E000000B80
00F400000F00
00B800001E00
003C00003C00
002E00007800
000F0000F400
000B8001E000
0003C003D000
0002E0078000
0000F00F4000
0000B81E0000
00003C3D0000
00002E780000
00000FF40000
00000BE00000
ENDCHAR
STARTCHAR w
ENCODING 119
SWIDTH 1266 0
DWIDTH 41 0
BBX 38 22 1 0
BITMAP
B80000001F80000000F0
7C0000002FC0000001E0
2D0000003ED0000002D0
1E00000079F0000007C0
0F000000B4F400000B80
0B400000F07800000F00
07C00001E03C00001E00
03D00003D02D00002D00
01E00007801E00003C00
00F0000B400F0000B800
00B4000F000B4000F400
0078001E0007C001E000
003D002D0002D002D000
002E003C0001E003C000
000F00780000F0078000
000B40F40000B40F4000
000781E00000781F0000
0003C2D000003C2D0000
0002E3C000002D3C0000
0000F78000000F780000
0000BF4000000BF40000
00007F00000007F00000
ENDCHAR
STARTCHAR x
ENCODING 120
SWIDTH 821 0
DWIDTH 26 0
BBX 24 22 1 0
BITMAP
2E00000000BC
0B80000001F0
02E0000007C0
00B800001F40
002E00007D00
000F8001F400
0003D007D000
0000F40F4000
00007D3D0000
00001FF80000
000007E00000
00000BF40000
00002E7C0000
0000B81F0000
0002E00BC000
000BC002E000
001F0000B800
007C00002E00
01F400000B80
07D0000002E0
1F40000000F4
7D000000003D
ENDCHAR
STARTCHAR y
ENCODING 121
SWIDTH 911 0
DWIDTH 29 0
BBX 23 22 3 0
BITMAP
F00000000078
F00000000078
F00000000078
F00000000078
F00000000078
F00000000078
F00000000078
F000000000F8
B400000002F8
780000000BF8
3D0000002FB8
1F800001FC78
0BF9005FE078
01FFFFFE4078
001AFFA400B4
0000000000F4
0000000001F0
0000000007D0
900000006F80
FE94005BFD00
6FFFFFFFE000
01ABFFE90000
ENDCHAR
STARTCHAR z
ENCODING 122
SWIDTH 728 0
DWIDTH 23 0
BBX 20 22 2 0
BITMAP
7FFFFFFFFC
7FFFFFFFF8
00000002E0
0000000780
0000001F00
0000007D00
000000F400
000002D000
00000B8000
00002E0000
00007C0000
0001F00000
0003D00000
000F400000
002E000000
00B8000000
02E0000000
07C0000000
1F40000000
3D00000000
BFFFFFFFFD
BFFFFFFFFD
ENDCHAR
STARTCHAR braceleft
ENCODING 123
SWIDTH 386 0
DWIDTH 12 0
BBX 10 25 1 -2
BITMAP
001BE0
007FE0
00F400
01E000
01E000
01E000
01E000
01D000
01D000
02D000
02C000
0B4000
FD0000
0B4000
02C000
02D000
01D000
01D000
01E000
01E000
01E000
01E000
00F400
007FE0
001BE0
ENDCHAR
STARTCHAR bar
ENCODING 124
SWIDTH 259 0
DWIDTH 8 0
BBX 2 32 3 -8
BITMAP
B0
B0
B0
B0
B0
B0
B0
B0
B0
B0
B0
B0
B0
B0
B0
B0
B0
B0
B0
B0
B0
B0
B0
B0
B0
B0
B0
B0
B0
B0
B0
B0
ENDCHAR
STARTCHAR braceright
ENCODING 125
SWIDTH 386 0
DWIDTH 12 0
BBX 11 25 1 -2
BITMAP
7F8000
7FE000
01B400
007800
007800
003800
003800
003800
003C00
003C00
002C00
000E40
0003F4
000E40
002C00
003C00
003C00
003800
003800
003800
007800
007800
01B400
7FE000
7F8000
ENDCHAR
STARTCHAR asciitilde
ENCODING 126
SWIDTH 634 0
DWIDTH 20 0
BBX 16 3 2 9
BITMAP
1BFA5006
BFFFFFFF
6405AFF9
ENDCHAR
STARTCHAR nonbreakingspace
ENCODING 160
SWIDTH 375 0
DWIDTH 12 0
BBX 1 1 0 0
BITMAP
00
ENDCHAR
STARTCHAR exclamdown
ENCODING 161
SWIDTH 274 0
DWIDTH 9 0
BBX 3 22 3 0
BITMAP
B8
B8
B8
00
00
00
70
70
70
74
74
74
B4
B4
B4
B4
B8
B8
B8
B8
B8
B8
ENDCHAR
STARTCHAR cent
ENCODING 162
SWIDTH 736 0
DWIDTH 24 0
BBX 21 25 1 -2
BITMAP
000003800000
000003800000
000003800000
0001AFFE9000
001FFFFFFE40
01FE53816FC0
07E403800180
0F8003800000
2E0003800000
3D0003800000
7C0003800000
780003800000
780003800000
780003800000
7C0003800000
3D0003800000
2E0003800000
0F8003800000
07E403800180
01FE53816FC0
002FFFFFFE40
0001AFFE9000
000003800000
000003800000
000003800000
ENDCHAR
STARTCHAR sterling
ENCODING 163
SWIDTH 792 0
DWIDTH 25 0
BBX 22 22 2 0
BITMAP
00001BFFA400
0001FFFFFF40
000BE5001A00
001F40000000
003D00000000
003C00000000
007800000000
007800000000
007800000000
007400000000
FFFFFFFF8000
FFFFFFFF8000
007400000000
007400000000
007400000000
007400000000
00B400000000
00F000000000
02E000000000
1FFFEA500590
FFFFFFFFFFD0
E50016AFFA40
ENDCHAR
STARTCHAR currency
ENCODING 164
SWIDTH 560 0
DWIDTH 18 0
BBX 14 14 2 4
BITMAP
A00000E0
786F93D0
2FFFFF40
0BD07E00
1E000F40
2D000780
2C000380
2C000380
2C000380
1E000B40
0B906E00
2FFFFF40
B86F93D0
A00000E0
ENDCHAR
STARTCHAR yen
ENCODING 165
SWIDTH 811 0
DWIDTH 26 0
BBX 22 22 2 0
BITMAP
B800000002E0
2D0000000B80
0F4000001F00
07D000007D00
01F00000F400
00B80002D000
002E000B8000
000B402E0000
0003D07C0000
3FFFF5FFFFC0
3FFFFFFFFFC0
00002F800000
00000F000000
3FFFFFFFFFC0
3FFFFFFFFFC0
00000F000000
00000F000000
00000F000000
00000F000000
00000F000000
00000F000000
00000F000000
ENDCHAR
STARTCHAR brokenbar
ENCODING 166
SWIDTH 259 0
DWIDTH 8 0
BBX 2 28 3 -6
BITMAP
B0
B0
B0
B0
B0
B0
B0
B0
B0
B0
B0
B0
00
00
00
00
B0
B0
B0
B0
B0
B0
B0
B0
B0
B0
B0
B0
ENDCHAR
STARTCHAR section
ENCODING 167
SWIDTH 500 0
DWIDTH 16 0
BBX 12 22 2 0
BITMAP
01BF90
1FFFF8
3E4068
3C0000
3C0000
2E0000
0B9000
1FB900
781BD0
F000BC
F0001E
B4000F
3E000F
07E02D
006EF4
0006E0
0000B8
00003C
00003C
6501BC
7FFFF4
1AFE80
ENDCHAR
STARTCHAR dieresis
ENCODING 168
SWIDTH 527 0
DWIDTH 17 0
BBX 9 2 4 18
BITMAP
F40B80
F40B80
ENDCHAR
STARTCHAR copyright
ENCODING 169
SWIDTH 770 0
DWIDTH 25 0
BBX 22 21 1 0
BITMAP
0001BFE80000
001F501B8000
00B40000B400
02D000001D00
07406FE80B00
0D02D01F0280
2C0B400201D0
381D000000E0
742C000000B0
743C00000070
703800000070
743C00000070
742C000000B0
381D000000E0
2C0B400201D0
0D02D01F0280
07406FE90B00
02D000001D00
00B40000B400
001F501B8000
0001BFE80000
ENDCHAR
STARTCHAR ordfeminine
ENCODING 170
SWIDTH 497 0
DWIDTH 16 0
BBX 13 14 1 8
BITMAP
06BFE400
3E401B40
200003C0
000002C0
006AFFC0
1BA542C0
780002C0
F00002C0
F00007C0
79016FC0
1BFFA2C0
00000000
00000000
BFFFFFC0
ENDCHAR
STARTCHAR guillemotleft
ENCODING 171
SWIDTH 440 0
DWIDTH 14 0
BBX 12 11 1 5
BITMAP
009009
02E02D
0B80B8
2E02E0
7C0B80
B40F00
7C0B80
2E02E0
0B80B8
02E02D
009009
ENDCHAR
STARTCHAR logicalnot
ENCODING 172
SWIDTH 634 0
DWIDTH 20 0
BBX 16 7 2 7
BITMAP
7FFFFFFE
7FFFFFFE
0000000E
0000000E
0000000E
0000000E
0000000E
ENDCHAR
STARTCHAR uni00AD
ENCODING 173
SWIDTH 540 0
DWIDTH 17 0
BBX 13 2 2 10
BITMAP
7FFFFF80
7FFFFF80
ENDCHAR
STARTCHAR registered
ENCODING 174
SWIDTH 600 0
DWIDTH 19 0
BBX 17 16 1 6
BITMAP
001BF90000
00A406D000
0740007400
0E2FF81C00
1C2C0B0A00
342C070700
302C1B0340
702FF80240
702C280240
302C0D0340
342C0B0700
182C038A00
0D00001C00
0740007400
00A406D000
001BF90000
ENDCHAR
STARTCHAR macron
ENCODING 175
SWIDTH 527 0
DWIDTH 17 0
BBX 9 2 4 18
BITMAP
FFFF80
FFFF80
ENDCHAR
STARTCHAR degree
ENCODING 176
SWIDTH 373 0
DWIDTH 12 0
BBX 8 8 2 14
BITMAP
0BE0
382C
B00E
E00A
E00A
B00E
382C
0BE0
ENDCHAR
STARTCHAR plusminus
ENCODING 177
SWIDTH 634 0
DWIDTH 20 0
BBX 16 18 2 1
BITMAP
0002C000
0002C000
0002C000
0002C000
0002C000
0002C000
7FFFFFFE
7FFFFFFE
0002C000
0002C000
0002C000
0002C000
0002C000
0002C000
00000000
00000000
7FFFFFFE
7FFFFFFE
ENDCHAR
STARTCHAR twosuperior
ENCODING 178
SWIDTH 511 0
DWIDTH 16 0
BBX 14 14 1 8
BITMAP
1AFFA400
B9406E00
90000780
000002D0
000002D0
000003C0
00000B80
00002E00
0001F400
000B8000
007D0000
07E00000
2F400000
FFFFFFE0
ENDCHAR
STARTCHAR threesuperior
ENCODING 179
SWIDTH 512 0
DWIDTH 16 0
BBX 14 14 1 8
BITMAP
1AFFA400
B9006E00
50000780
00000380
00000B40
0001BE00
00BFE400
00016E00
000007C0
000002D0
000002D0
80000780
F9006E00
1BFFA400
ENDCHAR
STARTCHAR acute
ENCODING 180
SWIDTH 527 0
DWIDTH 17 0
BBX 8 5 6 18
BITMAP
0009
00BE
07F4
7F40
2400
ENDCHAR
STARTCHAR micro
ENCODING 181
SWIDTH 705 0
DWIDTH 23 0
BBX 19 21 1 -6
BITMAP
00F0000074
00F00000B4
01E00000F0
02D00000F0
02D00001E0
03C00001E0
03800002D0
07800003C0
07400003C0
0B40000B80
0F80002F80
0FD000BB80
1EF407D780
1D7FFF4380
2D1BE403C0
3C00000000
3C00000000
7800000000
7400000000
B400000000
F000000000
ENDCHAR
STARTCHAR paragraph
ENCODING 182
SWIDTH 585 0
DWIDTH 19 0
BBX 13 22 2 0
BITMAP
01BFFFC0
0BFF82C0
3FFF82C0
BFFF82C0
FFFF82C0
FFFF82C0
FFFF82C0
FFFF82C0
BFFF82C0
3FFF82C0
0BFF82C0
01BF82C0
000382C0
000382C0
000382C0
000382C0
000382C0
000382C0
000382C0
000382C0
000382C0
000382C0
ENDCHAR
STARTCHAR periodcentered
ENCODING 183
SWIDTH 185 0
DWIDTH 6 0
BBX 4 3 1 9
BITMAP
7D
7D
7D
ENDCHAR
STARTCHAR cedilla
ENCODING 184
SWIDTH 527 0
DWIDTH 17 0
BBX 7 6 5 -6
BITMAP
0340
0B00
0FE4
003C
907C
FFE4
ENDCHAR
STARTCHAR onesuperior
ENCODING 185
SWIDTH 261 0
DWIDTH 8 0
BBX 6 14 0 8
BITMAP
07D0
29D0
91D0
01D0
01D0
01D0
01D0
01D0
01D0
01D0
01D0
01D0
01D0
01D0
ENDCHAR
STARTCHAR ordmasculine
ENCODING 186
SWIDTH 520 0
DWIDTH 17 0
BBX 15 14 1 8
BITMAP
01BFE800
0B501B80
380001E0
B4000074
E0000038
E0000038
E0000038
B0000074
380001E0
0B501B80
01BFE800
00000000
00000000
7FFFFFF0
ENDCHAR
STARTCHAR guillemotright
ENCODING 187
SWIDTH 440 0
DWIDTH 14 0
BBX 12 11 1 5
BITMAP
200600
7C0B80
1F02E0
0B80B8
02E02E
00F01E
02E02E
0B80B8
1F02E0
7C0B80
200600
ENDCHAR
STARTCHAR onequarter
ENCODING 188
SWIDTH 857 0
DWIDTH 27 0
BBX 26 22 0 0
BITMAP
02E0000002D000
2DE00000078000
50E000001E0000
00E000003C0000
00E00000B40000
00E00002D00000
00E00007800000
00E0001F000000
00E0003D000000
00E000B4000000
00E001E0000000
0000078000F800
00000F0007F800
00002D001F3800
0000B400783800
0001E001E03800
0007C007803800
000F402E003800
002D003FFFFFF0
00780000003800
01E00000003800
03C00000003800
ENDCHAR
STARTCHAR onehalf
ENCODING 189
SWIDTH 937 0
DWIDTH 30 0
BBX 28 22 0 0
BITMAP
02E0000002D000
2DE00000078000
50E000001E0000
00E000003C0000
00E00000B40000
00E00002D00000
00E00007800000
00E0001F000000
00E0003D000000
00E000B4000000
00E001E01AFE80
000007807901B4
00000F0050002C
00002D0000002D
0000B40000002D
0001E000000078
0007C0000001E0
000F4000000B80
002D0000007D00
0078000002E400
01E000001F8000
03C00000BFFFFD
ENDCHAR
STARTCHAR threequarters
ENCODING 190
SWIDTH 978 0
DWIDTH 31 0
BBX 29 22 1 0
BITMAP
3FFE9000000B4000
2501B400002D0000
00003C0000780000
00003C0001E00000
0001B40003C00000
00FF80000B400000
0005B4002E000000
00002D0078000000
00001D00F0000000
50002D02D0000000
7901B80B40000000
1BFE901E0007E000
0000007C001FE000
000000F00078E000
000002D001E0E000
00000B800B80E000
00001E002E00E000
00003C00B400E000
0000B401FFFFFF80
0002D0000000E000
000780000000E000
001F00000000E000
ENDCHAR
STARTCHAR questiondown
ENCODING 191
SWIDTH 568 0
DWIDTH 18 0
BBX 15 22 2 0
BITMAP
00003D00
00003D00
00003D00
00000000
00000000
00000000
00002D00
00002D00
00002D00
0006FD00
00BF9000
07E40000
1F400000
3D000000
B8000000
B4000000
B4000000
B8000000
7D000014
2F9406F4
07FFFFD0
006FF900
ENDCHAR
STARTCHAR Agrave
ENCODING 192
SWIDTH 812 0
DWIDTH 26 0
BBX 24 29 1 0
BITMAP
000240000000
0007E4000000
0001BE400000
00001BE00000
000000A00000
000000000000
000000000000
000007D00000
00000FF00000
00001EB40000
00003D3C0000
0000782D0000
0000F00F0000
0001E00B4000
0003C003C000
00078002E000
000F0000F000
001E00007800
003C00003C00
00B400001E00
00F000000F00
02FFFFFFFF80
03FFFFFFFFC0
0B40000001E0
0F00000000F0
2E0000000078
3C000000003C
B8000000001E
F0000000000F
ENDCHAR
STARTCHAR Aacute
ENCODING 193
SWIDTH 812 0
DWIDTH 26 0
BBX 24 29 1 0
BITMAP
000000018000
0000001BD000
000000BE4000
00000BE40000
00000A000000
000000000000
000000000000
000007D00000
00000FF00000
00001EB40000
00003D3C0000
0000782D0000
0000F00F0000
0001E00B4000
0003C003C000
00078002E000
000F0000F000
001E00007800
003C00003C00
00B400001E00
00F000000F00
02FFFFFFFF80
03FFFFFFFFC0
0B40000001E0
0F00000000F0
2E0000000078
3C000000003C
B8000000001E
F0000000000F
ENDCHAR
STARTCHAR Acircumflex
ENCODING 194
SWIDTH 812 0
DWIDTH 26 0
BBX 24 29 1 0
BITMAP
000002800000
00001FF40000
0000BD7E0000
0007D007D000
000A00006000
000000000000
000000000000
000007D00000
00000FF00000
00001EB40000
00003D3C0000
0000782D0000
0000F00F0000
0001E00B4000
0003C003C000
00078002E000
000F0000F000
001E00007800
003C00003C00
00B400001E00
00F000000F00
02FFFFFFFF80
03FFFFFFFFC0
0B40000001E0
0F00000000F0
2E0000000078
3C000000003C
B8000000001E
F0000000000F
ENDCHAR
STARTCHAR Atilde
ENCODING 195
SWIDTH 812 0
DWIDTH 26 0
BBX 24 27 1 0
BITMAP
0001BE51D000
0003FFFFC000
000741BF4000
000000000000
000000000000
000007D00000
00000FF00000
00001EB40000
00003D3C0000
0000782D0000
0000F00F0000
0001E00B4000
0003C003C000
00078002E000
000F0000F000
001E00007800
003C00003C00
00B400001E00
00F000000F00
02FFFFFFFF80
03FFFFFFFFC0
0B40000001E0
0F00000000F0
2E0000000078
3C000000003C
B8000000001E
F0000000000F
ENDCHAR
STARTCHAR Adieresis
ENCODING 196
SWIDTH 812 0
DWIDTH 26 0
BBX 24 26 1 0
BITMAP
0001F00F4000
0001F00F4000
000000000000
000000000000
000007D00000
00000FF00000
00001EB40000
00003D3C0000
0000782D0000
0000F00F0000
0001E00B4000
0003C003C000
00078002E000
000F0000F000
001E00007800
003C00003C00
00B400001E00
00F000000F00
02FFFFFFFF80
03FFFFFFFFC0
0B40000001E0
0F00000000F0
2E0000000078
3C000000003C
B8000000001E
F0000000000F
ENDCHAR
STARTCHAR Aring
ENCODING 197
SWIDTH 812 0
DWIDTH 26 0
BBX 24 29 1 0
BITMAP
00001BE40000
0000B41E0000
0000E00B0000
0000E00B0000
0000B41E0000
00001BE40000
000000000000
000007D00000
00000FF00000
00001EB40000
00003D3C0000
0000782D0000
0000F00F0000
0001E00B4000
0003C003C000
00078002E000
000F0000F000
001E00007800
003C00003C00
00B400001E00
00F000000F00
02FFFFFFFF80
03FFFFFFFFC0
0B40000001E0
0F00000000F0
2E0000000078
3C000000003C
B8000000001E
F0000000000F
ENDCHAR
STARTCHAR AE
ENCODING 198
SWIDTH 1172 0
DWIDTH 38 0
BBX 35 22 0 0
BITMAP
0000000BFFFFFFFFFC
0000001FFFFFFFFFFC
0000003D3C00000000
000000B83C00000000
000001E03C00000000
000003D03C00000000
00000B403C00000000
00001E003C00000000
00003D003C00000000
0000B4003FFFFFFFF0
0001E0003FFFFFFFF0
0003C0003C00000000
000B40003C00000000
001E00003C00000000
003FFFFFFC00000000
00BFFFFFFC00000000
01F000003C00000000
03D000003C00000000
0B8000003C00000000
1F0000003C00000000
3D0000003FFFFFFFFC
BC0000003FFFFFFFFC
ENDCHAR
STARTCHAR Ccedilla
ENCODING 199
SWIDTH 869 0
DWIDTH 28 0
BBX 24 28 2 -6
BITMAP
00006BFFE900
000BFFFFFFE4
00BFA40016FE
02F80000001A
0BD000000000
1F0000000000
3D0000000000
780000000000
B40000000000
B40000000000
F40000000000
F00000000000
B40000000000
B40000000000
780000000000
3D0000000000
1F0000000000
0BC000000000
02F80000000A
00BF940016FE
000BFFFFFFE4
00006BFFE900
000000D00000
000001F90000
0000000B4000
000000074000
0000240B4000
00002FF90000
ENDCHAR
STARTCHAR Egrave
ENCODING 200
SWIDTH 754 0
DWIDTH 24 0
BBX 19 29 3 0
BITMAP
00A0000000
00FD000000
002FD00000
0001F80000
0000180000
0000000000
0000000000
7FFFFFFFF8
7FFFFFFFF8
7800000000
7800000000
7800000000
7800000000
7800000000
7800000000
7800000000
7FFFFFFFE0
7FFFFFFFE0
7800000000
7800000000
7800000000
7800000000
7800000000
7800000000
7800000000
7800000000
7800000000
7FFFFFFFF8
7FFFFFFFF8
ENDCHAR
STARTCHAR Eacute
ENCODING 201
SWIDTH 754 0
DWIDTH 24 0
BBX 19 29 3 0
BITMAP
0000002400
000002F800
00001FD000
0001FD0000
0001900000
0000000000
0000000000
7FFFFFFFF8
7FFFFFFFF8
7800000000
7800000000
7800000000
7800000000
7800000000
7800000000
7800000000
7FFFFFFFE0
7FFFFFFFE0
7800000000
7800000000
7800000000
7800000000
7800000000
7800000000
7800000000
7800000000
7800000000
7FFFFFFFF8
7FFFFFFFF8
ENDCHAR
STARTCHAR Ecircumflex
ENCODING 202
SWIDTH 754 0
DWIDTH 24 0
BBX 19 29 3 0
BITMAP
0000640000
0002FE0000
001F9BD000
01B801B800
0190001800
0000000000
0000000000
7FFFFFFFF8
7FFFFFFFF8
7800000000
7800000000
7800000000
7800000000
7800000000
7800000000
7800000000
7FFFFFFFE0
7FFFFFFFE0
7800000000
7800000000
7800000000
7800000000
7800000000
7800000000
7800000000
7800000000
7800000000
7FFFFFFFF8
7FFFFFFFF8
ENDCHAR
STARTCHAR Edieresis
ENCODING 203
SWIDTH 754 0
DWIDTH 24 0
BBX 19 26 3 0
BITMAP
003D02E000
003D02E000
0000000000
0000000000
7FFFFFFFF8
7FFFFFFFF8
7800000000
7800000000
7800000000
7800000000
7800000000
7800000000
7800000000
7FFFFFFFE0
7FFFFFFFE0
7800000000
7800000000
7800000000
7800000000
7800000000
7800000000
7800000000
7800000000
7800000000
7FFFFFFFF8
7FFFFFFFF8
ENDCHAR
STARTCHAR Igrave
ENCODING 204
SWIDTH 287 0
DWIDTH 9 0
BBX 8 29 -1 0
BITMAP
6000
BE00
1FD0
01FD
0019
0000
0000
0078
0078
0078
0078
0078
0078
0078
0078
0078
0078
0078
0078
0078
0078
0078
0078
0078
0078
0078
0078
0078
0078
ENDCHAR
STARTCHAR Iacute
ENCODING 205
SWIDTH 287 0
DWIDTH 9 0
BBX 7 29 3 0
BITMAP
0028
01FC
1FE0
BD00
9000
0000
0000
7800
7800
7800
7800
7800
7800
7800
7800
7800
7800
7800
7800
7800
7800
7800
7800
7800
7800
7800
7800
7800
7800
ENDCHAR
STARTCHAR Icircumflex
ENCODING 206
SWIDTH 287 0
DWIDTH 9 0
BBX 12 29 -1 0
BITMAP
007400
02FE00
1F9BD0
B900B9
900019
000000
000000
007800
007800
007800
007800
007800
007800
007800
007800
007800
007800
007800
007800
007800
007800
007800
007800
007800
007800
007800
007800
007800
007800
ENDCHAR
STARTCHAR Idieresis
ENCODING 207
SWIDTH 287 0
DWIDTH 9 0
BBX 9 26 0 0
BITMAP
B807C0
B807C0
000000
000000
01E000
01E000
01E000
01E000
01E000
01E000
01E000
01E000
01E000
01E000
01E000
01E000
01E000
01E000
01E000
01E000
01E000
01E000
01E000
01E000
01E000
01E000
ENDCHAR
STARTCHAR Eth
ENCODING 208
SWIDTH 910 0
DWIDTH 29 0
BBX 27 22 0 0
BITMAP
01FFFFFFA90000
01FFFFFFFFE400
01E000005BFE00
01E00000006F80
01E000000007D0
01E000000002F0
01E000000000F4
01E000000000B8
01E0000000007C
01E0000000003C
BFFFFFF400003C
BFFFFFF400003C
01E0000000003C
01E0000000007C
01E00000000078
01E000000000B4
01E000000001F0
01E000000007D0
01E00000002F80
01E0000056FE00
01FFFFFFFFE400
01FFFFFFA90000
ENDCHAR
STARTCHAR Ntilde
ENCODING 209
SWIDTH 936 0
DWIDTH 30 0
BBX 24 27 3 0
BITMAP
0001FE41D000
0003FFFFC000
000745BF4000
000000000000
000000000000
7D000000002D
7F400000002D
7FD00000002D
7AF40000002D
78BC0000002D
782F0000002D
780BC000002D
7802F000002D
7800B800002D
78002E00002D
78000B80002D
780002E0002D
780000B8002D
7800003E002D
7800000F802D
78000003E02D
78000000F82D
780000007E2D
780000001F6D
7800000007FD
7800000001FD
78000000007D
ENDCHAR
STARTCHAR Ograve
ENCODING 210
SWIDTH 983 0
DWIDTH 31 0
BBX 28 29 2 0
BITMAP
00006400000000
0000BE00000000
00001FE0000000
000001BD000000
00000019000000
00000000000000
00000000000000
00006BFFA50000
001BFFFFFFD000
00BF94005BFD00
02F40000006F40
0BC000000007D0
1F0000000001F0
3D0000000000B8
7800000000007C
B400000000003C
B400000000002D
F400000000002D
F400000000002D
B400000000002D
B400000000003C
7800000000007C
3D0000000000B8
1F0000000001F0
0B8000000007D0
02F40000006F40
00BF94005BFD00
001BFFFFFFD000
00006BFFA50000
ENDCHAR
STARTCHAR Oacute
ENCODING 211
SWIDTH 983 0
DWIDTH 31 0
BBX 28 29 2 0
BITMAP
00000000180000
00000001FC0000
0000001BE40000
000000BE000000
000000A0000000
00000000000000
00000000000000
00006BFFA50000
001BFFFFFFD000
00BF94005BFD00
02F40000006F40
0BC000000007D0
1F0000000001F0
3D0000000000B8
7800000000007C
B400000000003C
B400000000002D
F400000000002D
F400000000002D
B400000000002D
B400000000003C
7800000000007C
3D0000000000B8
1F0000000001F0
0B8000000007D0
02F40000006F40
00BF94005BFD00
001BFFFFFFD000
00006BFFA50000
ENDCHAR
STARTCHAR Ocircumflex
ENCODING 212
SWIDTH 983 0
DWIDTH 31 0
BBX 28 29 2 0
BITMAP
00000068000000
000002FF400000
00001F97E00000
0000B900BD0000
00009000090000
00000000000000
00000000000000
00006BFFA50000
001BFFFFFFD000
00BF94005BFD00
02F40000006F40
0BC000000007D0
1F0000000001F0
3D0000000000B8
7800000000007C
B400000000003C
B400000000002D
F400000000002D
F400000000002D
B400000000002D
B400000000003C
7800000000007C
3D0000000000B8
1F0000000001F0
0B8000000007D0
02F40000006F40
00BF94005BFD00
001BFFFFFFD000
00006BFFA50000
ENDCHAR
STARTCHAR Otilde
ENCODING 213
SWIDTH 983 0
DWIDTH 31 0
BBX 28 27 2 0
BITMAP
00001FE41D0000
00007FFFFC0000
0000B45BE00000
00000000000000
00000000000000
00006BFFA50000
001BFFFFFFD000
00BF94005BFD00
02F40000006F40
0BC000000007D0
1F0000000001F0
3D0000000000B8
7800000000007C
B400000000003C
B400000000002D
F400000000002D
F400000000002D
B400000000002D
B400000000003C
7800000000007C
3D0000000000B8
1F0000000001F0
0B8000000007D0
02F40000006F40
00BF94005BFD00
001BFFFFFFD000
00006BFFA50000
ENDCHAR
STARTCHAR Odieresis
ENCODING 214
SWIDTH 983 0
DWIDTH 31 0
BBX 28 26 2 0
BITMAP
00002E01F00000
00002E01F00000
00000000000000
00000000000000
00006BFFA50000
001BFFFFFFD000
00BF94005BFD00
02F40000006F40
0BC000000007D0
1F0000000001F0
3D0000000000B8
7800000000007C
B400000000003C
B400000000002D
F400000000002D
F400000000002D
B400000000002D
B400000000003C
7800000000007C
3D0000000000B8
1F0000000001F0
0B8000000007D0
02F40000006F40
00BF94005BFD00
001BFFFFFFD000
00006BFFA50000
ENDCHAR
STARTCHAR multiply
ENCODING 215
SWIDTH 634 0
DWIDTH 20 0
BBX 13 13 4 4
BITMAP
90000200
F4000F40
7D003D00
1F40F400
07D3D000
01FF4000
007E0000
00FF4000
03D3D000
0F40F400
7D003D00
F4000F40
90000240
ENDCHAR
STARTCHAR Oslash
ENCODING 216
SWIDTH 983 0
DWIDTH 31 0
BBX 28 26 2 -2
BITMAP
00000000000F00
00000000002D00
00006BFFA5B400
001BFFFFFFF000
00BF94001BFD00
02F400000B6F40
0BC000001E07D0
1F0000003801F0
3D000000B000B4
78000002D0007C
B400000780003C
B400000F00002D
F400002D00002D
F00000B400002D
B40001E000002D
B40003C000003C
78000B4000007C
3D002D000000B8
2E0078000001F0
0B80F0000007D0
03F6D000006F40
00BFD4005BFD00
001FFFFFFFD000
003D6BFFA50000
00B40000000000
02D00000000000
ENDCHAR
STARTCHAR Ugrave
ENCODING 217
SWIDTH 891 0
DWIDTH 29 0
BBX 22 29 3 0
BITMAP
000900000000
000FD0000000
0002FD000000
00002F800000
000001800000
000000000000
000000000000
B400000000F0
B400000000F0
B400000000F0
B400000000F0
B400000000F0
B400000000F0
B400000000F0
B400000000F0
B400000000F0
B400000000F0
B400000000F0
B400000000F0
B400000000F0
B400000000F0
B400000000F0
B400000000F0
7800000001F0
3E00000003D0
1F8000001FC0
07F94006FF00
01BFFFFFF800
0006BFFA4000
ENDCHAR
STARTCHAR Uacute
ENCODING 218
SWIDTH 891 0
DWIDTH 29 0
BBX 22 29 3 0
BITMAP
000000064000
0000002F8000
000002FD0000
00001F900000
000019000000
000000000000
000000000000
B400000000F0
B400000000F0
B400000000F0
B400000000F0
B400000000F0
B400000000F0
B400000000F0
B400000000F0
B400000000F0
B400000000F0
B400000000F0
B400000000F0
B400000000F0
B400000000F0
B400000000F0
B400000000F0
7800000001F0
3E00000003D0
1F8000001FC0
07F94006FF00
01BFFFFFF800
0006BFFA4000
ENDCHAR
STARTCHAR Ucircumflex
ENCODING 219
SWIDTH 891 0
DWIDTH 29 0
BBX 22 29 3 0
BITMAP
000006400000
00006FE00000
0002F5BD0000
001F801B8000
001800018000
000000000000
000000000000
B400000000F0
B400000000F0
B400000000F0
B400000000F0
B400000000F0
B400000000F0
B400000000F0
B400000000F0
B400000000F0
B400000000F0
B400000000F0
B400000000F0
B400000000F0
B400000000F0
B400000000F0
B400000000F0
7800000001F0
3E00000003D0
1F8000001FC0
07F94006FF00
01BFFFFFF800
0006BFFA4000
ENDCHAR
STARTCHAR Udieresis
ENCODING 220
SWIDTH 891 0
DWIDTH 29 0
BBX 22 26 3 0
BITMAP
0003D02E0000
0003D02E0000
000000000000
000000000000
B400000000F0
B400000000F0
B400000000F0
B400000000F0
B400000000F0
B400000000F0
B400000000F0
B400000000F0
B400000000F0
B400000000F0
B400000000F0
B400000000F0
B400000000F0
B400000000F0
B400000000F0
B400000000F0
7800000001F0
3E00000003D0
1F8000001FC0
07F94006FF00
01BFFFFFF800
0006BFFA4000
ENDCHAR
STARTCHAR Yacute
ENCODING 221
SWIDTH 763 0
DWIDTH 24 0
BBX 22 29 1 0
BITMAP
000000064000
0000002F8000
000002FD0000
00001F900000
000019000000
000000000000
000000000000
7800000001E0
2E00000007C0
0B4000000F40
03D000002D00
01F00000B800
00780001F000
002E0007C000
000F400F4000
0003D02E0000
0001F0B80000
0000B9F00000
00002FD00000
00000F400000
00000B400000
00000B400000
00000B400000
00000B400000
00000B400000
00000B400000
00000B400000
00000B400000
00000B400000
ENDCHAR
STARTCHAR Thorn
ENCODING 222
SWIDTH 787 0
DWIDTH 25 0
BBX 21 22 3 0
BITMAP
780000000000
780000000000
780000000000
780000000000
7FFFFFF94000
7FFFFFFFE000
78000016FC00
780000003E00
780000001F00
780000000F40
780000000B40
780000000F40
780000001F00
780000002E00
78000006FC00
7FFFFFFFE000
7FFFFFF94000
780000000000
780000000000
780000000000
780000000000
780000000000
ENDCHAR
STARTCHAR germandbls
ENCODING 223
SWIDTH 863 0
DWIDTH 28 0
BBX 23 22 3 0
BITMAP
001AFFE94000
01FFFFFFE400
0BF90016FE00
2F4000002F40
7C0000000B80
B400000007C0
F00000000780
F00000001F40
F0000005BD00
F003FFFFE000
F003FFFFF800
F0000005BF80
F00000000BE0
F000000001F4
F000000000B8
F00000000078
F00000000078
F000000000F4
F000000002F0
F03950016FC0
F03FFFFFFE00
F006AFFF9000
ENDCHAR
STARTCHAR agrave
ENCODING 224
SWIDTH 888 0
DWIDTH 28 0
BBX 23 29 2 0
BITMAP
000240000000
0007E4000000
0001BE400000
00001BE00000
000000A00000
000000000000
000000000000
0006BFFE9000
01BFFFFFFD00
0FE94005AF80
0900000006E0
0000000000B4
000000000038
00000000003C
00000000003C
00000056ABFC
0001AFFFFFFC
006FFFA9503C
07FE5000003C
1F900000003C
7D000000003C
B4000000003C
F0000000003C
F0000000003C
F400000000BC
7D0000001BFC
2FD4005AFF7C
0BFFFFFFE43C
006FFFA5003C
ENDCHAR
STARTCHAR aacute
ENCODING 225
SWIDTH 888 0
DWIDTH 28 0
BBX 23 29 2 0
BITMAP
000000018000
0000001BD000
000000BE4000
000007E40000
000006400000
000000000000
000000000000
0006BFFE9000
01BFFFFFFD00
0FE94005AF80
0900000006E0
0000000000B4
000000000038
00000000003C
00000000003C
00000056ABFC
0001AFFFFFFC
006FFFA9503C
07FE5000003C
1F900000003C
7D000000003C
B4000000003C
F0000000003C
F0000000003C
F400000000BC
7D0000001BFC
2FD4005AFF7C
0BFFFFFFE43C
006FFFA5003C
ENDCHAR
STARTCHAR acircumflex
ENCODING 226
SWIDTH 888 0
DWIDTH 28 0
BBX 23 29 2 0
BITMAP
000002800000
00001FF40000
0000BD6E4000
0007D007E000
000A00006000
000000000000
000000000000
0006BFFE9000
01BFFFFFFD00
0FE94005AF80
0900000006E0
0000000000B4
000000000038
00000000003C
00000000003C
00000056ABFC
0001AFFFFFFC
006FFFA9503C
07FE5000003C
1F900000003C
7D000000003C
B4000000003C
F0000000003C
F0000000003C
F400000000BC
7D0000001BFC
2FD4005AFF7C
0BFFFFFFE43C
006FFFA5003C
ENDCHAR
STARTCHAR atilde
ENCODING 227
SWIDTH 888 0
DWIDTH 28 0
BBX 23 27 2 0
BITMAP
0001BE51E000
0003FFFFD000
000741BF4000
000000000000
000000000000
0006BFFE9000
01BFFFFFFD00
0FE94005AF80
0900000006E0
0000000000B4
000000000038
00000000003C
00000000003C
00000056ABFC
0001AFFFFFFC
006FFFA9503C
07FE5000003C
1F900000003C
7D000000003C
B4000000003C
F0000000003C
F0000000003C
F400000000BC
7D0000001BFC
2FD4005AFF7C
0BFFFFFFE43C
006FFFA5003C
ENDCHAR
STARTCHAR adieresis
ENCODING 228
SWIDTH 888 0
DWIDTH 28 0
BBX 23 26 2 0
BITMAP
0001F00F4000
0001F00F4000
000000000000
000000000000
0006BFFE9000
01BFFFFFFD00
0FE94005AF80
0900000006E0
0000000000B4
000000000038
00000000003C
00000000003C
00000056ABFC
0001AFFFFFFC
006FFFA9503C
07FE5000003C
1F900000003C
7D000000003C
B4000000003C
F0000000003C
F0000000003C
F400000000BC
7D0000001BFC
2FD4005AFF7C
0BFFFFFFE43C
006FFFA5003C
ENDCHAR
STARTCHAR aring
ENCODING 229
SWIDTH 888 0
DWIDTH 28 0
BBX 23 29 2 0
BITMAP
00001BE40000
0000B41E0000
0000E00B0000
0000E00B0000
0000B41E0000
00001BE40000
000000000000
0006BFFE9000
01BFFFFFFD00
0FE94005AF80
0900000006E0
0000000000B4
000000000038
00000000003C
00000000003C
00000056ABFC
0001AFFFFFFC
006FFFA9503C
07FE5000003C
1F900000003C
7D000000003C
B4000000003C
F0000000003C
F0000000003C
F400000000BC
7D0000001BFC
2FD4005AFF7C
0BFFFFFFE43C
006FFFA5003C
ENDCHAR
STARTCHAR ae
ENCODING 230
SWIDTH 1551 0
DWIDTH 50 0
BBX 46 22 2 0
BITMAP
0006BFFE9000001BFFA40000
01BFFFFFFD0006FFFFFF4000
0FE94005AF802FE4005BE000
0900000006E0BD000001BC00
0000000000B6E00000002E00
00000000003FC00000000B40
00000000003F4000000003C0
00000000003E0000000002D0
00000056ABFD0000000001E0
0001AFFFFFFC0000000000E0
006FFFA9503FFFFFFFFFFFE0
07FE5000003FFFFFFFFFFFF0
1F900000003C000000000000
7D000000002D000000000000
B4000000001E000000000000
F0000000000F000000000000
F0000000001F800000000000
F400000000BFE00000000000
7D0000001BF9BE0000000600
2FD4005AFF802FE50005BF00
0BFFFFFFE40006FFFFFFF900
006FFFA50000001AFFFA4000
ENDCHAR
STARTCHAR ccedilla
ENCODING 231
SWIDTH 869 0
DWIDTH 28 0
BBX 24 28 2 -6
BITMAP
00006BFFE900
000BFFFFFFE4
00BFA40016FE
02F80000001A
0BD000000000
1F0000000000
3D0000000000
780000000000
B40000000000
B40000000000
F40000000000
F00000000000
B40000000000
B40000000000
780000000000
3D0000000000
1F0000000000
0BC000000000
02F80000000A
00BF940016FE
000BFFFFFFE4
00006BFFE900
000000D00000
000001F90000
0000000B4000
000000074000
0000240B4000
00002FF90000
ENDCHAR
STARTCHAR egrave
ENCODING 232
SWIDTH 910 0
DWIDTH 29 0
BBX 25 29 2 0
BITMAP
00018000000000
0002F800000000
00007F40000000
000007F4000000
00000064000000
00000000000000
00000000000000
00006BFE900000
001BFFFFFD0000
00BF94016FD000
02F8000006F400
0BD00000007C00
1F000000002E00
3D000000000F00
7C000000000740
B4000000000380
B40000000003C0
FFFFFFFFFFFFC0
FFFFFFFFFFFFC0
B4000000000000
B4000000000000
78000000000000
3D000000000000
1F000000000000
0BD00000000000
02F80000001900
007FA40016FD00
000BFFFFFFE400
00006BFFE90000
ENDCHAR
STARTCHAR eacute
ENCODING 233
SWIDTH 910 0
DWIDTH 29 0
BBX 25 29 2 0
BITMAP
00000000A00000
00000007F00000
0000007F800000
000002F8000000
00000240000000
00000000000000
00000000000000
00006BFE900000
001BFFFFFD0000
00BF94016FD000
02F8000006F400
0BD00000007C00
1F000000002E00
3D000000000F00
7C000000000740
B4000000000380
B40000000003C0
FFFFFFFFFFFFC0
FFFFFFFFFFFFC0
B4000000000000
B4000000000000
78000000000000
3D000000000000
1F000000000000
0BD00000000000
02F80000001900
007FA40016FD00
000BFFFFFFE400
00006BFFE90000
ENDCHAR
STARTCHAR ecircumflex
ENCODING 234
SWIDTH 910 0
DWIDTH 29 0
BBX 25 29 2 0
BITMAP
00000190000000
00000BF9000000
00007E6F800000
0002E402F40000
00024000640000
00000000000000
00000000000000
00006BFE900000
001BFFFFFD0000
00BF94016FD000
02F8000006F400
0BD00000007C00
1F000000002E00
3D000000000F00
7C000000000740
B4000000000380
B40000000003C0
FFFFFFFFFFFFC0
FFFFFFFFFFFFC0
B4000000000000
B4000000000000
78000000000000
3D000000000000
1F000000000000
0BD00000000000
02F80000001900
007FA40016FD00
000BFFFFFFE400
00006BFFE90000
ENDCHAR
STARTCHAR edieresis
ENCODING 235
SWIDTH 910 0
DWIDTH 29 0
BBX 25 26 2 0
BITMAP
0000B807C00000
0000B807C00000
00000000000000
00000000000000
00006BFE900000
001BFFFFFD0000
00BF94016FD000
02F8000006F400
0BD00000007C00
1F000000002E00
3D000000000F00
7C000000000740
B4000000000380
B40000000003C0
FFFFFFFFFFFFC0
FFFFFFFFFFFFC0
B4000000000000
B4000000000000
78000000000000
3D000000000000
1F000000000000
0BD00000000000
02F80000001900
007FA40016FD00
000BFFFFFFE400
00006BFFE90000
ENDCHAR
STARTCHAR igrave
ENCODING 236
SWIDTH 287 0
DWIDTH 9 0
BBX 8 29 -1 0
BITMAP
6000
BE00
1FD0
01FD
0019
0000
0000
0078
0078
0078
0078
0078
0078
0078
0078
0078
0078
0078
0078
0078
0078
0078
0078
0078
0078
0078
0078
0078
0078
ENDCHAR
STARTCHAR iacute
ENCODING 237
SWIDTH 287 0
DWIDTH 9 0
BBX 7 29 3 0
BITMAP
0028
01FC
1FE0
BE00
9000
0000
0000
7800
7800
7800
7800
7800
7800
7800
7800
7800
7800
7800
7800
7800
7800
7800
7800
7800
7800
7800
7800
7800
7800
ENDCHAR
STARTCHAR icircumflex
ENCODING 238
SWIDTH 287 0
DWIDTH 9 0
BBX 12 29 -1 0
BITMAP
006400
02FE40
1F9BE0
B900BD
900019
000000
000000
007800
007800
007800
007800
007800
007800
007800
007800
007800
007800
007800
007800
007800
007800
007800
007800
007800
007800
007800
007800
007800
007800
ENDCHAR
STARTCHAR idieresis
ENCODING 239
SWIDTH 287 0
DWIDTH 9 0
BBX 9 26 0 0
BITMAP
B807C0
B807C0
000000
000000
01E000
01E000
01E000
01E000
01E000
01E000
01E000
01E000
01E000
01E000
01E000
01E000
01E000
01E000
01E000
01E000
01E000
01E000
01E000
01E000
01E000
01E000
ENDCHAR
STARTCHAR eth
ENCODING 240
SWIDTH 910 0
DWIDTH 29 0
BBX 27 22 0 0
BITMAP
01FFFFFFA90000
01FFFFFFFFE400
01E000005BFE00
01E00000006F80
01E000000007D0
01E000000002F0
01E000000000F4
01E000000000B8
01E0000000007C
01E0000000003C
BFFFFFF400003C
BFFFFFF400003C
01E0000000003C
01E0000000007C
01E00000000078
01E000000000B4
01E000000001F0
01E000000007D0
01E00000002F80
01E0000056FE00
01FFFFFFFFE400
01FFFFFFA90000
ENDCHAR
STARTCHAR ntilde
ENCODING 241
SWIDTH 933 0
DWIDTH 30 0
BBX 24 27 3 0
BITMAP
0002FA42C000
0007FFFF8000
000B06BE0000
000000000000
000000000000
780006FFE400
7801BFFFFF40
781FF9001BE0
79FE400001F4
7FE40000007C
7F400000003C
78000000002D
78000000002D
78000000002D
78000000002D
78000000002D
78000000002D
78000000002D
78000000002D
78000000002D
78000000002D
78000000002D
78000000002D
78000000002D
78000000002D
78000000002D
78000000002D
ENDCHAR
STARTCHAR ograve
ENCODING 242
SWIDTH 983 0
DWIDTH 31 0
BBX 28 29 2 0
BITMAP
00006400000000
0000BE00000000
00001FE0000000
000001BD000000
00000019000000
00000000000000
00000000000000
00006BFFA50000
001BFFFFFFD000
00BF94005BFD00
02F40000006F40
0BC000000007D0
1F0000000001F0
3D0000000000B8
7800000000007C
B400000000003C
B400000000002D
F400000000002D
F400000000002D
B400000000002D
B400000000003C
7800000000007C
3D0000000000B8
1F0000000001F0
0B8000000007D0
02F40000006F40
00BF94005BFD00
001BFFFFFFD000
00006BFFA50000
ENDCHAR
STARTCHAR oacute
ENCODING 243
SWIDTH 983 0
DWIDTH 31 0
BBX 28 29 2 0
BITMAP
00000000180000
00000001FC0000
0000001BE40000
000000BE000000
000000A0000000
00000000000000
00000000000000
00006BFFA50000
001BFFFFFFD000
00BF94005BFD00
02F40000006F40
0BC000000007D0
1F0000000001F0
3D0000000000B8
7800000000007C
B400000000003C
B400000000002D
F400000000002D
F400000000002D
B400000000002D
B400000000003C
7800000000007C
3D0000000000B8
1F0000000001F0
0B8000000007D0
02F40000006F40
00BF94005BFD00
001BFFFFFFD000
00006BFFA50000
ENDCHAR
STARTCHAR ocircumflex
ENCODING 244
SWIDTH 983 0
DWIDTH 31 0
BBX 28 29 2 0
BITMAP
00000068000000
000002FF400000
00001F97E00000
0000B900BD0000
00009000090000
00000000000000
00000000000000
00006BFFA50000
001BFFFFFFD000
00BF94005BFD00
02F40000006F40
0BC000000007D0
1F0000000001F0
3D0000000000B8
7800000000007C
B400000000003C
B400000000002D
F400000000002D
F400000000002D
B400000000002D
B400000000003C
7800000000007C
3D0000000000B8
1F0000000001F0
0B8000000007D0
02F40000006F40
00BF94005BFD00
001BFFFFFFD000
00006BFFA50000
ENDCHAR
STARTCHAR otilde
ENCODING 245
SWIDTH 983 0
DWIDTH 31 0
BBX 28 27 2 0
BITMAP
00001FE41D0000
00007FFFFC0000
0000B45BE00000
00000000000000
00000000000000
00006BFFA50000
001BFFFFFFD000
00BF94005BFD00
02F40000006F40
0BC000000007D0
1F0000000001F0
3D0000000000B8
7800000000007C
B400000000003C
B400000000002D
F400000000002D
F400000000002D
B400000000002D
B400000000003C
7800000000007C
3D0000000000B8
1F0000000001F0
0B8000000007D0
02F40000006F40
00BF94005BFD00
001BFFFFFFD000
00006BFFA50000
ENDCHAR
STARTCHAR odieresis
ENCODING 246
SWIDTH 983 0
DWIDTH 31 0
BBX 28 26 2 0
BITMAP
00002E01F00000
00002E01F00000
00000000000000
00000000000000
00006BFFA50000
001BFFFFFFD000
00BF94005BFD00
02F40000006F40
0BC000000007D0
1F0000000001F0
3D0000000000B8
7800000000007C
B400000000003C
B400000000002D
F400000000002D
F400000000002D
B400000000002D
B400000000003C
7800000000007C
3D0000000000B8
1F0000000001F0
0B8000000007D0
02F40000006F40
00BF94005BFD00
001BFFFFFFD000
00006BFFA50000
ENDCHAR
STARTCHAR divide
ENCODING 247
SWIDTH 634 0
DWIDTH 20 0
BBX 16 14 2 4
BITMAP
0003D000
0003D000
0003D000
00000000
00000000
00000000
7FFFFFFE
7FFFFFFE
00000000
00000000
00000000
0003D000
0003D000
0003D000
ENDCHAR
STARTCHAR oslash
ENCODING 248
SWIDTH 983 0
DWIDTH 31 0
BBX 28 26 2 -2
BITMAP
00000000000F00
00000000002D00
00006BFFA5B400
001BFFFFFFF000
00BF94001BFD00
02F400000B6F40
0BC000001E07D0
1F0000003801F0
3D000000B000B4
78000002D0007C
B400000780003C
B400000F00002D
F400002D00002D
F00000B400002D
B40001E000002D
B40003C000003C
78000B4000007C
3D002D000000B8
2E0078000001F0
0B80F0000007D0
03F6D000006F40
00BFD4005BFD00
001FFFFFFFD000
003D6BFFA50000
00B40000000000
02D00000000000
ENDCHAR
STARTCHAR ugrave
ENCODING 249
SWIDTH 931 0
DWIDTH 30 0
BBX 24 29 3 0
BITMAP
000240000000
000BE4000000
0001BE000000
00001BD00000
000001900000
000000000000
000000000000
78000000002D
78000000002D
78000000002D
78000000002D
78000000002D
78000000002D
78000000002D
78000000002D
78000000002D
78000000002D
78000000002D
78000000002D
78000000002D
78000000002D
78000000002D
78000000003D
7800000001FD
3D0000001BFD
1F000001BE2D
0BE4016FE42D
02FFFFFE402D
001BFE90002D
ENDCHAR
STARTCHAR uacute
ENCODING 250
SWIDTH 931 0
DWIDTH 30 0
BBX 24 29 3 0
BITMAP
000000018000
0000001FD000
000001BE4000
00000BE00000
00000A000000
000000000000
000000000000
78000000002D
78000000002D
78000000002D
78000000002D
78000000002D
78000000002D
78000000002D
78000000002D
78000000002D
78000000002D
78000000002D
78000000002D
78000000002D
78000000002D
78000000002D
78000000003D
7800000001FD
3D0000001BFD
1F000001BE2D
0BE4016FE42D
02FFFFFE402D
001BFE90002D
ENDCHAR
STARTCHAR ucircumflex
ENCODING 251
SWIDTH 931 0
DWIDTH 30 0
BBX 24 29 3 0
BITMAP
000002800000
00001FF40000
0001B97E0000
000BD007D000
00090000A000
000000000000
000000000000
78000000002D
78000000002D
78000000002D
78000000002D
78000000002D
78000000002D
78000000002D
78000000002D
78000000002D
78000000002D
78000000002D
78000000002D
78000000002D
78000000002D
78000000002D
78000000003D
7800000001FD
3D0000001BFD
1F000001BE2D
0BE4016FE42D
02FFFFFE402D
001BFE90002D
ENDCHAR
STARTCHAR udieresis
ENCODING 252
SWIDTH 931 0
DWIDTH 30 0
BBX 24 26 3 0
BITMAP
0001F00F0000
0001F00F0000
000000000000
000000000000
78000000002D
78000000002D
78000000002D
78000000002D
78000000002D
78000000002D
78000000002D
78000000002D
78000000002D
78000000002D
78000000002D
78000000002D
78000000002D
78000000002D
78000000002D
78000000003D
7800000001FD
3D0000001BFD
1F000001BE2D
0BE4016FE42D
02FFFFFE402D
001BFE90002D
ENDCHAR
STARTCHAR yacute
ENCODING 253
SWIDTH 911 0
DWIDTH 29 0
BBX 23 29 3 0
BITMAP
000000060000
0000002F8000
000002F90000
00001F900000
000019000000
000000000000
000000000000
F00000000078
F00000000078
F00000000078
F00000000078
F00000000078
F00000000078
F00000000078
F000000000F8
B400000002F8
780000000BF8
3D0000002FB8
1F800001FC78
0BF9005FE078
01FFFFFE4078
001AFFA400B4
0000000000F4
0000000001F0
0000000007D0
900000006F80
FE94005BFD00
6FFFFFFFE000
01ABFFE90000
ENDCHAR
STARTCHAR thorn
ENCODING 254
SWIDTH 787 0
DWIDTH 25 0
BBX 21 22 3 0
BITMAP
780000000000
780000000000
780000000000
780000000000
7FFFFFF94000
7FFFFFFFE000
78000016FC00
780000003E00
780000001F00
780000000F40
780000000B40
780000000F40
780000001F00
780000002E00
78000006FC00
7FFFFFFFE000
7FFFFFF94000
780000000000
780000000000
780000000000
780000000000
780000000000
ENDCHAR
STARTCHAR ydieresis
ENCODING 255
SWIDTH 911 0
DWIDTH 29 0
BBX 23 26 3 0
BITMAP
0003D02D0000
0003D02D0000
000000000000
000000000000
F00000000078
F00000000078
F00000000078
F00000000078
F00000000078
F00000000078
F00000000078
F000000000F8
B400000002F8
780000000BF8
3D0000002FB8
1F800001FC78
0BF9005FE078
01FFFFFE4078
001AFFA400B4
0000000000F4
0000000001F0
0000000007D0
900000006F80
FE94005BFD00
6FFFFFFFE000
01ABFFE90000
ENDCHAR
STARTCHAR Amacron
ENCODING 256
SWIDTH 812 0
DWIDTH 26 0
BBX 24 26 1 0
BITMAP
0001FFFF4000
0001FFFF4000
000000000000
000000000000
000007D00000
00000FF00000
00001EB40000
00003D3C0000
0000782D0000
0000F00F0000
0001E00B4000
0003C003C000
00078002E000
000F0000F000
001E00007800
003C00003C00
00B400001E00
00F000000F00
02FFFFFFFF80
03FFFFFFFFC0
0B40000001E0
0F00000000F0
2E0000000078
3C000000003C
B8000000001E
F0000000000F
ENDCHAR
STARTCHAR amacron
ENCODING 257
SWIDTH 888 0
DWIDTH 28 0
BBX 23 26 2 0
BITMAP
0001FFFF4000
0001FFFF4000
000000000000
000000000000
0006BFFE9000
01BFFFFFFD00
0FE94005AF80
0900000006E0
0000000000B4
000000000038
00000000003C
00000000003C
00000056ABFC
0001AFFFFFFC
006FFFA9503C
07FE5000003C
1F900000003C
7D000000003C
B4000000003C
F0000000003C
F0000000003C
F400000000BC
7D0000001BFC
2FD4005AFF7C
0BFFFFFFE43C
006FFFA5003C
ENDCHAR
STARTCHAR Abreve
ENCODING 258
SWIDTH 812 0
DWIDTH 26 0
BBX 24 28 1 0
BITMAP
00078002D000
0002E41B8000
0000FFFF0000
00002FF80000
000000000000
000000000000
000007D00000
00000FF00000
00001EB40000
00003D3C0000
0000782D0000
0000F00F0000
0001E00B4000
0003C003C000
00078002E000
000F0000F000
001E00007800
003C00003C00
00B400001E00
00F000000F00
02FFFFFFFF80
03FFFFFFFFC0
0B40000001E0
0F00000000F0
2E0000000078
3C000000003C
B8000000001E
F0000000000F
ENDCHAR
STARTCHAR abreve
ENCODING 259
SWIDTH 888 0
DWIDTH 28 0
BBX 23 28 2 0
BITMAP
00038002D000
0002E41BC000
0000FFFF4000
00001BF80000
000000000000
000000000000
0006BFFE9000
01BFFFFFFD00
0FE94005AF80
0900000006E0
0000000000B4
000000000038
00000000003C
00000000003C
00000056ABFC
0001AFFFFFFC
006FFFA9503C
07FE5000003C
1F900000003C
7D000000003C
B4000000003C
F0000000003C
F0000000003C
F400000000BC
7D0000001BFC
2FD4005AFF7C
0BFFFFFFE43C
006FFFA5003C
ENDCHAR
STARTCHAR Aogonek
ENCODING 260
SWIDTH 812 0
DWIDTH 26 0
BBX 27 28 1 -6
BITMAP
000007D0000000
00000FF0000000
00001EB4000000
00003D3C000000
0000782D000000
0000F00F000000
0001E00B400000
0003C003C00000
00078002E00000
000F0000F00000
001E0000780000
003C00003C0000
00B400001E0000
00F000000F0000
02FFFFFFFF8000
03FFFFFFFFC000
0B40000001E000
0F00000000F000
2E000000007800
3C000000003C00
B8000000001E00
F0000000000F00
00000000002E00
0000000000B400
0000000000E000
0000000001D000
0000000000E414
00000000006FF4
ENDCHAR
STARTCHAR aogonek
ENCODING 261
SWIDTH 888 0
DWIDTH 28 0
BBX 26 28 2 -6
BITMAP
0006BFFE900000
01BFFFFFFD0000
0FE94005AF8000
0900000006E000
0000000000B400
00000000003800
00000000003C00
00000000003C00
00000056ABFC00
0001AFFFFFFC00
006FFFA9503C00
07FE5000003C00
1F900000003C00
7D000000003C00
B4000000003C00
F0000000003C00
F0000000003C00
F400000000BC00
7D0000001BFC00
2FD4005AFF7C00
0BFFFFFFE43C00
006FFFA5003C00
0000000000B400
0000000002C000
00000000074000
000000000B4000
00000000078090
0000000001BFD0
ENDCHAR
STARTCHAR Cacute
ENCODING 262
SWIDTH 869 0
DWIDTH 28 0
BBX 24 29 2 0
BITMAP
000000002800
00000001FC00
0000001FE000
000000BD0000
000000900000
000000000000
000000000000
00006BFFE900
000BFFFFFFE4
00BFA40016FE
02F80000001A
0BD000000000
1F0000000000
3D0000000000
780000000000
B40000000000
B40000000000
F40000000000
F00000000000
B40000000000
B40000000000
780000000000
3D0000000000
1F0000000000
0BC000000000
02F80000000A
00BF940016FE
000BFFFFFFE4
00006BFFE900
ENDCHAR
STARTCHAR cacute
ENCODING 263
SWIDTH 869 0
DWIDTH 28 0
BBX 24 29 2 0
BITMAP
000000002800
00000001FC00
0000001FE000
000000BE0000
000000900000
000000000000
000000000000
00006BFFE900
000BFFFFFFE4
00BFA40016FE
02F80000001A
0BD000000000
1F0000000000
3D0000000000
780000000000
B40000000000
B40000000000
F40000000000
F00000000000
B40000000000
B40000000000
780000000000
3D0000000000
1F0000000000
0BC000000000
02F80000000A
00BF940016FE
000BFFFFFFE4
00006BFFE900
ENDCHAR
STARTCHAR Ccircumflex
ENCODING 264
SWIDTH 869 0
DWIDTH 28 0
BBX 24 29 2 0
BITMAP
000000740000
000002FE0000
00001F9BD000
0000B900B900
000090001900
000000000000
000000000000
00006BFFE900
000BFFFFFFE4
00BFA40016FE
02F80000001A
0BD000000000
1F0000000000
3D0000000000
780000000000
B40000000000
B40000000000
F40000000000
F00000000000
B40000000000
B40000000000
780000000000
3D0000000000
1F0000000000
0BC000000000
02F80000000A
00BF940016FE
000BFFFFFFE4
00006BFFE900
ENDCHAR
STARTCHAR ccircumflex
ENCODING 265
SWIDTH 869 0
DWIDTH 28 0
BBX 24 29 2 0
BITMAP
000000640000
000002FE4000
00001F9BE000
0000B900BD00
000090001900
000000000000
000000000000
00006BFFE900
000BFFFFFFE4
00BFA40016FE
02F80000001A
0BD000000000
1F0000000000
3D0000000000
780000000000
B40000000000
B40000000000
F40000000000
F00000000000
B40000000000
B40000000000
780000000000
3D0000000000
1F0000000000
0BC000000000
02F80000000A
00BF940016FE
000BFFFFFFE4
00006BFFE900
ENDCHAR
STARTCHAR Cdotaccent
ENCODING 266
SWIDTH 869 0
DWIDTH 28 0
BBX 24 26 2 0
BITMAP
000000B80000
000000B80000
000000000000
000000000000
00006BFFE900
000BFFFFFFE4
00BFA40016FE
02F80000001A
0BD000000000
1F0000000000
3D0000000000
780000000000
B40000000000
B40000000000
F40000000000
F00000000000
B40000000000
B40000000000
780000000000
3D0000000000
1F0000000000
0BC000000000
02F80000000A
00BF940016FE
000BFFFFFFE4
00006BFFE900
ENDCHAR
STARTCHAR cdotaccent
ENCODING 267
SWIDTH 869 0
DWIDTH 28 0
BBX 24 26 2 0
BITMAP
000000B80000
000000B80000
000000000000
000000000000
00006BFFE900
000BFFFFFFE4
00BFA40016FE
02F80000001A
0BD000000000
1F0000000000
3D0000000000
780000000000
B40000000000
B40000000000
F40000000000
F00000000000
B40000000000
B40000000000
780000000000
3D0000000000
1F0000000000
0BC000000000
02F80000000A
00BF940016FE
000BFFFFFFE4
00006BFFE900
ENDCHAR
STARTCHAR Ccaron
ENCODING 268
SWIDTH 869 0
DWIDTH 28 0
BBX 24 29 2 0
BITMAP
000090001900
0000B900B900
00001F9BD000
000002FE0000
000000740000
000000000000
000000000000
00006BFFE900
000BFFFFFFE4
00BFA40016FE
02F80000001A
0BD000000000
1F0000000000
3D0000000000
780000000000
B40000000000
B40000000000
F40000000000
F00000000000
B40000000000
B40000000000
780000000000
3D0000000000
1F0000000000
0BC000000000
02F80000000A
00BF940016FE
000BFFFFFFE4
00006BFFE900
ENDCHAR
STARTCHAR ccaron
ENCODING 269
SWIDTH 869 0
DWIDTH 28 0
BBX 24 29 2 0
BITMAP
000090000900
0000B900BD00
00001F9BE000
000002FE4000
000000640000
000000000000
000000000000
00006BFFE900
000BFFFFFFE4
00BFA40016FE
02F80000001A
0BD000000000
1F0000000000
3D0000000000
780000000000
B40000000000
B40000000000
F40000000000
F00000000000
B40000000000
B40000000000
780000000000
3D0000000000
1F0000000000
0BC000000000
02F80000000A
00BF940016FE
000BFFFFFFE4
00006BFFE900
ENDCHAR
STARTCHAR Dcaron
ENCODING 270
SWIDTH 910 0
DWIDTH 29 0
BBX 24 29 3 0
BITMAP
018000180000
01F801B80000
002F5BD00000
0007FE000000
0000A4000000
000000000000
000000000000
7FFFFFFA4000
7FFFFFFFF900
78000005BF80
7800000007E0
7800000001F4
78000000007C
78000000002D
78000000001E
78000000001F
78000000000F
78000000000F
78000000000F
78000000000F
78000000001F
78000000001E
78000000002D
78000000007C
7800000001F4
7800000007E0
78000005BF80
7FFFFFFFF900
7FFFFFFA5000
ENDCHAR
STARTCHAR dcaron
ENCODING 271
SWIDTH 910 0
DWIDTH 29 0
BBX 24 29 3 0
BITMAP
018000180000
01F801B80000
002F5BD00000
0006FE000000
000064000000
000000000000
000000000000
7FFFFFFA4000
7FFFFFFFF900
78000005BF80
7800000007E0
7800000001F4
78000000007C
78000000002D
78000000001E
78000000001F
78000000000F
78000000000F
78000000000F
78000000000F
78000000001F
78000000001E
78000000002D
78000000007C
7800000001F4
7800000007E0
78000005BF80
7FFFFFFFF900
7FFFFFFA5000
ENDCHAR
STARTCHAR Dcroat
ENCODING 272
SWIDTH 910 0
DWIDTH 29 0
BBX 27 22 0 0
BITMAP
01FFFFFFA90000
01FFFFFFFFE400
01E000005BFE00
01E00000006F80
01E000000007D0
01E000000002F0
01E000000000F4
01E000000000B8
01E0000000007C
01E0000000003C
BFFFFFF400003C
BFFFFFF400003C
01E0000000003C
01E0000000007C
01E00000000078
01E000000000B4
01E000000001F0
01E000000007D0
01E00000002F80
01E0000056FE00
01FFFFFFFFE400
01FFFFFFA90000
ENDCHAR
STARTCHAR dcroat
ENCODING 273
SWIDTH 910 0
DWIDTH 29 0
BBX 27 22 0 0
BITMAP
01FFFFFFA90000
01FFFFFFFFE400
01E000005BFE00
01E00000006F80
01E000000007D0
01E000000002F0
01E000000000F4
01E000000000B8
01E0000000007C
01E0000000003C
BFFFFFF400003C
BFFFFFF400003C
01E0000000003C
01E0000000007C
01E00000000078
01E000000000B4
01E000000001F0
01E000000007D0
01E00000002F80
01E0000056FE00
01FFFFFFFFE400
01FFFFFFA90000
ENDCHAR
STARTCHAR Emacron
ENCODING 274
SWIDTH 754 0
DWIDTH 24 0
BBX 19 26 3 0
BITMAP
003FFFE000
003FFFE000
0000000000
0000000000
7FFFFFFFF8
7FFFFFFFF8
7800000000
7800000000
7800000000
7800000000
7800000000
7800000000
7800000000
7FFFFFFFE0
7FFFFFFFE0
7800000000
7800000000
7800000000
7800000000
7800000000
7800000000
7800000000
7800000000
7800000000
7FFFFFFFF8
7FFFFFFFF8
ENDCHAR
STARTCHAR emacron
ENCODING 275
SWIDTH 910 0
DWIDTH 29 0
BBX 25 26 2 0
BITMAP
0000BFFFC00000
0000BFFFC00000
00000000000000
00000000000000
00006BFE900000
001BFFFFFD0000
00BF94016FD000
02F8000006F400
0BD00000007C00
1F000000002E00
3D000000000F00
7C000000000740
B4000000000380
B40000000003C0
FFFFFFFFFFFFC0
FFFFFFFFFFFFC0
B4000000000000
B4000000000000
78000000000000
3D000000000000
1F000000000000
0BD00000000000
02F80000001900
007FA40016FD00
000BFFFFFFE400
00006BFFE90000
ENDCHAR
STARTCHAR Ebreve
ENCODING 276
SWIDTH 754 0
DWIDTH 24 0
BBX 19 28 3 0
BITMAP
00F0007800
007D01F400
002FFFD000
0006FE4000
0000000000
0000000000
7FFFFFFFF8
7FFFFFFFF8
7800000000
7800000000
7800000000
7800000000
7800000000
7800000000
7800000000
7FFFFFFFE0
7FFFFFFFE0
7800000000
7800000000
7800000000
7800000000
7800000000
7800000000
7800000000
7800000000
7800000000
7FFFFFFFF8
7FFFFFFFF8
ENDCHAR
STARTCHAR ebreve
ENCODING 277
SWIDTH 910 0
DWIDTH 29 0
BBX 25 28 2 0
BITMAP
0002D000F00000
0001F407D00000
00007FFF800000
00001BF9000000
00000000000000
00000000000000
00006BFE900000
001BFFFFFD0000
00BF94016FD000
02F8000006F400
0BD00000007C00
1F000000002E00
3D000000000F00
7C000000000740
B4000000000380
B40000000003C0
FFFFFFFFFFFFC0
FFFFFFFFFFFFC0
B4000000000000
B4000000000000
78000000000000
3D000000000000
1F000000000000
0BD00000000000
02F80000001900
007FA40016FD00
000BFFFFFFE400
00006BFFE90000
ENDCHAR
STARTCHAR Edotaccent
ENCODING 278
SWIDTH 754 0
DWIDTH 24 0
BBX 19 26 3 0
BITMAP
0000B80000
0000B80000
0000000000
0000000000
7FFFFFFFF8
7FFFFFFFF8
7800000000
7800000000
7800000000
7800000000
7800000000
7800000000
7800000000
7FFFFFFFE0
7FFFFFFFE0
7800000000
7800000000
7800000000
7800000000
7800000000
7800000000
7800000000
7800000000
7800000000
7FFFFFFFF8
7FFFFFFFF8
ENDCHAR
STARTCHAR edotaccent
ENCODING 279
SWIDTH 910 0
DWIDTH 29 0
BBX 25 26 2 0
BITMAP
000002E0000000
000002E0000000
00000000000000
00000000000000
00006BFE900000
001BFFFFFD0000
00BF94016FD000
02F8000006F400
0BD00000007C00
1F000000002E00
3D000000000F00
7C000000000740
B4000000000380
B40000000003C0
FFFFFFFFFFFFC0
FFFFFFFFFFFFC0
B4000000000000
B4000000000000
78000000000000
3D000000000000
1F000000000000
0BD00000000000
02F80000001900
007FA40016FD00
000BFFFFFFE400
00006BFFE90000
ENDCHAR
STARTCHAR Eogonek
ENCODING 280
SWIDTH 754 0
DWIDTH 24 0
BBX 19 28 3 -6
BITMAP
7FFFFFFFF8
7FFFFFFFF8
7800000000
7800000000
7800000000
7800000000
7800000000
7800000000
7800000000
7FFFFFFFE0
7FFFFFFFE0
7800000000
7800000000
7800000000
7800000000
7800000000
7800000000
7800000000
7800000000
7800000000
7FFFFFFFF8
7FFFFFFFF8
0000001F40
0000007800
000000F000
000000E000
000000F418
0000002FF8
ENDCHAR
STARTCHAR eogonek
ENCODING 281
SWIDTH 910 0
DWIDTH 29 0
BBX 25 27 2 -5
BITMAP
00006BFE900000
001BFFFFFD0000
00BF94016FD000
02F8000006F400
0BD00000007C00
1F000000002E00
3D000000000F00
7C000000000740
B4000000000380
B40000000003C0
FFFFFFFFFFFFC0
FFFFFFFFFFFFC0
B4000000000000
B4000000000000
78000000000000
3D000000000000
1F000000000000
0BD00000000000
02F80000001900
007FA40016FD00
000BFFFFFFF400
00006BFFEBD000
000000000B4000
000000000E0000
000000001E0000
000000000F4180
0000000002FF80
ENDCHAR
STARTCHAR Ecaron
ENCODING 282
SWIDTH 754 0
DWIDTH 24 0
BBX 19 29 3 0
BITMAP
0190001800
01F801B800
002F9BD000
0006FE0000
0000740000
0000000000
0000000000
7FFFFFFFF8
7FFFFFFFF8
7800000000
7800000000
7800000000
7800000000
7800000000
7800000000
7800000000
7FFFFFFFE0
7FFFFFFFE0
7800000000
7800000000
7800000000
7800000000
7800000000
7800000000
7800000000
7800000000
7800000000
7FFFFFFFF8
7FFFFFFFF8
ENDCHAR
STARTCHAR ecaron
ENCODING 283
SWIDTH 910 0
DWIDTH 29 0
BBX 25 29 2 0
BITMAP
00024000240000
0002E402F40000
00007E6F800000
00000BF9000000
00000190000000
00000000000000
00000000000000
00006BFE900000
001BFFFFFD0000
00BF94016FD000
02F8000006F400
0BD00000007C00
1F000000002E00
3D000000000F00
7C000000000740
B4000000000380
B40000000003C0
FFFFFFFFFFFFC0
FFFFFFFFFFFFC0
B4000000000000
B4000000000000
78000000000000
3D000000000000
1F000000000000
0BD00000000000
02F80000001900
007FA40016FD00
000BFFFFFFE400
00006BFFE90000
ENDCHAR
STARTCHAR Gcircumflex
ENCODING 284
SWIDTH 910 0
DWIDTH 29 0
BBX 25 29 2 0
BITMAP
00000028000000
000001FF400000
00001B97E00000
0000BD00BD0000
000090000A0000
00000000000000
00000000000000
00005AFFE90000
000BFFFFFFF900
007FE50016BF00
02F90000000600
0BD00000000000
1F400000000000
3D000000000000
78000000000000
B4000000000000
B4000000000000
F4000000000000
F400001FFFFF80
B400001FFFFF80
B8000000000780
7C000000000780
3D000000000780
1F400000000780
0BD00000000780
02F90000000780
007FE50005AF80
000BFFFFFFFE40
00005BFFFA5000
ENDCHAR
STARTCHAR gcircumflex
ENCODING 285
SWIDTH 910 0
DWIDTH 29 0
BBX 25 29 2 0
BITMAP
00000028000000
000001FF400000
00001B97E00000
0000BD00BD0000
000090000A0000
00000000000000
00000000000000
00005AFFE90000
000BFFFFFFF900
007FE50016BF00
02F90000000600
0BD00000000000
1F400000000000
3D000000000000
78000000000000
B4000000000000
B4000000000000
F4000000000000
F400001FFFFF80
B400001FFFFF80
B8000000000780
7C000000000780
3D000000000780
1F400000000780
0BD00000000780
02F90000000780
007FE50005AF80
000BFFFFFFFE40
00005BFFFA5000
ENDCHAR
STARTCHAR Gbreve
ENCODING 286
SWIDTH 910 0
DWIDTH 29 0
BBX 25 28 2 0
BITMAP
000078002C0000
00003E01B80000
00001FFFE00000
000002FE400000
00000000000000
00000000000000
00005AFFE90000
000BFFFFFFF900
007FE50016BF00
02F90000000600
0BD00000000000
1F400000000000
3D000000000000
78000000000000
B4000000000000
B4000000000000
F4000000000000
F400001FFFFF80
B400001FFFFF80
B8000000000780
7C000000000780
3D000000000780
1F400000000780
0BD00000000780
02F90000000780
007FE50005AF80
000BFFFFFFFE40
00005BFFFA5000
ENDCHAR
STARTCHAR gbreve
ENCODING 287
SWIDTH 910 0
DWIDTH 29 0
BBX 25 28 2 0
BITMAP
000078002C0000
00003E01B80000
00001FFFE00000
000002FE400000
00000000000000
00000000000000
00005AFFE90000
000BFFFFFFF900
007FE50016BF00
02F90000000600
0BD00000000000
1F400000000000
3D000000000000
78000000000000
B4000000000000
B4000000000000
F4000000000000
F400001FFFFF80
B400001FFFFF80
B8000000000780
7C000000000780
3D000000000780
1F400000000780
0BD00000000780
02F90000000780
007FE50005AF80
000BFFFFFFFE40
00005BFFFA5000
ENDCHAR
STARTCHAR Gdotaccent
ENCODING 288
SWIDTH 910 0
DWIDTH 29 0
BBX 25 26 2 0
BITMAP
0000007C000000
0000007C000000
00000000000000
00000000000000
00005AFFE90000
000BFFFFFFF900
007FE50016BF00
02F90000000600
0BD00000000000
1F400000000000
3D000000000000
78000000000000
B4000000000000
B4000000000000
F4000000000000
F400001FFFFF80
B400001FFFFF80
B8000000000780
7C000000000780
3D000000000780
1F400000000780
0BD00000000780
02F90000000780
007FE50005AF80
000BFFFFFFFE40
00005BFFFA5000
ENDCHAR
STARTCHAR gdotaccent
ENCODING 289
SWIDTH 910 0
DWIDTH 29 0
BBX 25 26 2 0
BITMAP
0000007C000000
0000007C000000
00000000000000
00000000000000
00005AFFE90000
000BFFFFFFF900
007FE50016BF00
02F90000000600
0BD00000000000
1F400000000000
3D000000000000
78000000000000
B4000000000000
B4000000000000
F4000000000000
F400001FFFFF80
B400001FFFFF80
B8000000000780
7C000000000780
3D000000000780
1F400000000780
0BD00000000780
02F90000000780
007FE50005AF80
000BFFFFFFFE40
00005BFFFA5000
ENDCHAR
STARTCHAR Gcommaaccent
ENCODING 290
SWIDTH 910 0
DWIDTH 29 0
BBX 25 28 2 -6
BITMAP
00005AFFE90000
000BFFFFFFF900
007FE50016BF00
02F90000000600
0BD00000000000
1F400000000000
3D000000000000
78000000000000
B4000000000000
B4000000000000
F4000000000000
F400001FFFFF80
B400001FFFFF80
B8000000000780
7C000000000780
3D000000000780
1F400000000780
0BD00000000780
02F90000000780
007FE50005AF80
000BFFFFFFFE40
00005BFFFA5000
00000000000000
00000000000000
0000002D000000
0000003C000000
00000038000000
00000074000000
ENDCHAR
STARTCHAR gcommaaccent
ENCODING 291
SWIDTH 910 0
DWIDTH 29 0
BBX 25 28 2 -6
BITMAP
00005AFFE90000
000BFFFFFFF900
007FE50016BF00
02F90000000600
0BD00000000000
1F400000000000
3D000000000000
78000000000000
B4000000000000
B4000000000000
F4000000000000
F400001FFFFF80
B400001FFFFF80
B8000000000780
7C000000000780
3D000000000780
1F400000000780
0BD00000000780
02F90000000780
007FE50005AF80
000BFFFFFFFE40
00005BFFFA5000
00000000000000
00000000000000
0000002D000000
0000003C000000
00000038000000
00000074000000
ENDCHAR
STARTCHAR Hcircumflex
ENCODING 292
SWIDTH 949 0
DWIDTH 30 0
BBX 24 29 3 0
BITMAP
000002900000
00001FF80000
0000BD6F4000
0007E006E000
000600006000
000000000000
000000000000
78000000001E
78000000001E
78000000001E
78000000001E
78000000001E
78000000001E
78000000001E
78000000001E
78000000001E
7FFFFFFFFFFE
7FFFFFFFFFFE
78000000001E
78000000001E
78000000001E
78000000001E
78000000001E
78000000001E
78000000001E
78000000001E
78000000001E
78000000001E
78000000001E
ENDCHAR
STARTCHAR hcircumflex
ENCODING 293
SWIDTH 949 0
DWIDTH 30 0
BBX 24 29 3 0
BITMAP
000002900000
00001FF80000
0000BD6F4000
0007E006E000
000600006000
000000000000
000000000000
78000000001E
78000000001E
78000000001E
78000000001E
78000000001E
78000000001E
78000000001E
78000000001E
78000000001E
7FFFFFFFFFFE
7FFFFFFFFFFE
78000000001E
78000000001E
78000000001E
78000000001E
78000000001E
78000000001E
78000000001E
78000000001E
78000000001E
78000000001E
78000000001E
ENDCHAR
STARTCHAR Hbar
ENCODING 294
SWIDTH 949 0
DWIDTH 30 0
BBX 29 22 1 0
BITMAP
078000000001E000
078000000001E000
078000000001E000
078000000001E000
FFFFFFFFFFFFFF80
FFFFFFFFFFFFFF80
078000000001E000
078000000001E000
078000000001E000
07FFFFFFFFFFE000
07FFFFFFFFFFE000
078000000001E000
078000000001E000
078000000001E000
078000000001E000
078000000001E000
078000000001E000
078000000001E000
078000000001E000
078000000001E000
078000000001E000
078000000001E000
ENDCHAR
STARTCHAR hbar
ENCODING 295
SWIDTH 949 0
DWIDTH 30 0
BBX 29 22 1 0
BITMAP
078000000001E000
078000000001E000
078000000001E000
078000000001E000
FFFFFFFFFFFFFF80
FFFFFFFFFFFFFF80
078000000001E000
078000000001E000
078000000001E000
07FFFFFFFFFFE000
07FFFFFFFFFFE000
078000000001E000
078000000001E000
078000000001E000
078000000001E000
078000000001E000
078000000001E000
078000000001E000
078000000001E000
078000000001E000
078000000001E000
078000000001E000
ENDCHAR
STARTCHAR Itilde
ENCODING 296
SWIDTH 287 0
DWIDTH 9 0
BBX 11 27 -1 0
BITMAP
2FA42C
7FFFF8
A06BE0
000000
000000
007800
007800
007800
007800
007800
007800
007800
007800
007800
007800
007800
007800
007800
007800
007800
007800
007800
007800
007800
007800
007800
007800
ENDCHAR
STARTCHAR itilde
ENCODING 297
SWIDTH 287 0
DWIDTH 9 0
BBX 11 27 -1 0
BITMAP
2FA42C
7FFFF8
B06BE0
000000
000000
007800
007800
007800
007800
007800
007800
007800
007800
007800
007800
007800
007800
007800
007800
007800
007800
007800
007800
007800
007800
007800
007800
ENDCHAR
STARTCHAR Imacron
ENCODING 298
SWIDTH 287 0
DWIDTH 9 0
BBX 9 26 0 0
BITMAP
BFFFC0
BFFFC0
000000
000000
01E000
01E000
01E000
01E000
01E000
01E000
01E000
01E000
01E000
01E000
01E000
01E000
01E000
01E000
01E000
01E000
01E000
01E000
01E000
01E000
01E000
01E000
ENDCHAR
STARTCHAR imacron
ENCODING 299
SWIDTH 287 0
DWIDTH 9 0
BBX 9 26 0 0
BITMAP
BFFFC0
BFFFC0
000000
000000
01E000
01E000
01E000
01E000
01E000
01E000
01E000
01E000
01E000
01E000
01E000
01E000
01E000
01E000
01E000
01E000
01E000
01E000
01E000
01E000
01E000
01E000
ENDCHAR
STARTCHAR Ibreve
ENCODING 300
SWIDTH 287 0
DWIDTH 9 0
BBX 11 28 -1 0
BITMAP
B40038
7D01F4
1FFFE0
06FE40
000000
000000
007800
007800
007800
007800
007800
007800
007800
007800
007800
007800
007800
007800
007800
007800
007800
007800
007800
007800
007800
007800
007800
007800
ENDCHAR
STARTCHAR ibreve
ENCODING 301
SWIDTH 287 0
DWIDTH 9 0
BBX 11 28 -1 0
BITMAP
B4003C
7D01F4
1FFFE0
06FE40
000000
000000
007800
007800
007800
007800
007800
007800
007800
007800
007800
007800
007800
007800
007800
007800
007800
007800
007800
007800
007800
007800
007800
007800
ENDCHAR
STARTCHAR Iogonek
ENCODING 302
SWIDTH 287 0
DWIDTH 9 0
BBX 8 28 0 -6
BITMAP
01E0
01E0
01E0
01E0
01E0
01E0
01E0
01E0
01E0
01E0
01E0
01E0
01E0
01E0
01E0
01E0
01E0
01E0
01E0
01E0
01E0
01E0
0740
2D00
3800
7800
3D05
1BFE
ENDCHAR
STARTCHAR iogonek
ENCODING 303
SWIDTH 287 0
DWIDTH 9 0
BBX 8 28 0 -6
BITMAP
01E0
01E0
01E0
01E0
01E0
01E0
01E0
01E0
01E0
01E0
01E0
01E0
01E0
01E0
01E0
01E0
01E0
01E0
01E0
01E0
01E0
01E0
0740
2D00
3800
7800
3D05
1BFE
ENDCHAR
STARTCHAR Idotaccent
ENCODING 304
SWIDTH 287 0
DWIDTH 9 0
BBX 3 26 3 0
BITMAP
B8
B8
00
00
78
78
78
78
78
78
78
78
78
78
78
78
78
78
78
78
78
78
78
78
78
78
ENDCHAR
STARTCHAR dotlessi
ENCODING 305
SWIDTH 287 0
DWIDTH 9 0
BBX 3 22 3 0
BITMAP
78
78
78
78
78
78
78
78
78
78
78
78
78
78
78
78
78
78
78
78
78
78
ENDCHAR
STARTCHAR IJ
ENCODING 306
SWIDTH 877 0
DWIDTH 28 0
BBX 22 22 3 0
BITMAP
7800000001E0
7800000001E0
7800000001E0
7800000001E0
7800000001E0
7800000001E0
7800000001E0
7800000001E0
7800000001E0
7800000001E0
7800000001E0
7800000001E0
7800000001E0
7800000001E0
7800000001E0
7800000001E0
7800000002D0
7800000007C0
780000001F80
780A5001BE00
780BFFFFF800
7801AFFE8000
ENDCHAR
STARTCHAR ij
ENCODING 307
SWIDTH 877 0
DWIDTH 28 0
BBX 22 22 3 0
BITMAP
7800000001E0
7800000001E0
7800000001E0
7800000001E0
7800000001E0
7800000001E0
7800000001E0
7800000001E0
7800000001E0
7800000001E0
7800000001E0
7800000001E0
7800000001E0
7800000001E0
7800000001E0
7800000001E0
7800000002D0
7800000007C0
780000001F80
780A5001BE00
780BFFFFF800
7801AFFE8000
ENDCHAR
STARTCHAR Jcircumflex
ENCODING 308
SWIDTH 590 0
DWIDTH 19 0
BBX 20 29 0 0
BITMAP
0000001D00
000000BF80
000007E6F4
00006E006E
0000640006
0000000000
0000000000
0000002D00
0000002D00
0000002D00
0000002D00
0000002D00
0000002D00
0000002D00
0000002D00
0000002D00
0000002D00
0000002D00
0000002D00
0000002D00
0000002D00
0000002D00
0000002D00
0000003D00
0000007C00
000001F400
E5001BE000
FFFFFF8000
1AFFE40000
ENDCHAR
STARTCHAR jcircumflex
ENCODING 309
SWIDTH 590 0
DWIDTH 19 0
BBX 20 29 0 0
BITMAP
0000001D00
000000BF80
000007E6F4
00006E006E
0000640006
0000000000
0000000000
0000002D00
0000002D00
0000002D00
0000002D00
0000002D00
0000002D00
0000002D00
0000002D00
0000002D00
0000002D00
0000002D00
0000002D00
0000002D00
0000002D00
0000002D00
0000002D00
0000003D00
0000007C00
000001F400
E5001BE000
FFFFFF8000
1AFFE40000
ENDCHAR
STARTCHAR Kcommaaccent
ENCODING 310
SWIDTH 806 0
DWIDTH 26 0
BBX 22 28 3 -6
BITMAP
780000001F80
78000000BD00
78000007E000
7800002F4000
780001F80000
78000BD00000
78007E000000
7806F4000000
782F80000000
79FD00000000
7FF000000000
79F800000000
782F40000000
7807E0000000
7801BD000000
78002F800000
780007F40000
780000BE0000
7800001FD000
78000002F800
780000007F40
780000000BE0
000000000000
000000000000
00003C000000
000078000000
000074000000
0000B0000000
ENDCHAR
STARTCHAR kcommaaccent
ENCODING 311
SWIDTH 867 0
DWIDTH 28 0
BBX 23 28 3 -6
BITMAP
7800000002D0
7800000003C0
7800000007C0
780000000B40
780000001F00
780000007D00
78000001F400
7800000BD000
7800007E4000
78005BF40000
7FFFFE400000
7FFFFFE40000
780056FE4000
7800001BE000
78000001FD00
780000002F00
780000000B80
7800000003D0
7800000001F0
7800000000F4
7800000000B8
780000000078
000000000000
000000000000
00000F000000
00001E000000
00001D000000
00002C000000
ENDCHAR
STARTCHAR kgreenlandic
ENCODING 312
SWIDTH 867 0
DWIDTH 28 0
BBX 23 22 3 0
BITMAP
7800000002D0
7800000003C0
7800000007C0
780000000B40
780000001F00
780000007D00
78000001F400
7800000BD000
7800007E4000
78005BF40000
7FFFFE400000
7FFFFFE40000
780056FE4000
7800001BE000
78000001FD00
780000002F00
780000000B80
7800000003D0
7800000001F0
7800000000F4
7800000000B8
780000000078
ENDCHAR
STARTCHAR Lacute
ENCODING 313
SWIDTH 701 0
DWIDTH 22 0
BBX 19 29 3 0
BITMAP
0028000000
01FC000000
1FE0000000
BE00000000
9000000000
0000000000
0000000000
7800000000
7800000000
7800000000
7800000000
7800000000
7800000000
7800000000
7800000000
7800000000
7800000000
7800000000
7800000000
7800000000
7800000000
7800000000
7800000000
7800000000
7800000000
7800000000
7800000000
7FFFFFFFF4
7FFFFFFFF4
ENDCHAR
STARTCHAR lacute
ENCODING 314
SWIDTH 709 0
DWIDTH 23 0
BBX 20 29 3 0
BITMAP
0028000000
01FC000000
1FE0000000
BE00000000
9000000000
0000000000
0000000000
7800000000
7800000000
7800000000
7800000000
7800000000
7800000000
7800000000
7800000000
7800000000
7800000000
7800000000
7800000000
7800000000
7800000000
7800000000
7800000000
7800000000
3C00000000
2E00000000
1FD4000000
07FFFFFFFD
006BFFFFFD
ENDCHAR
STARTCHAR Lcommaaccent
ENCODING 315
SWIDTH 701 0
DWIDTH 22 0
BBX 19 28 3 -6
BITMAP
7800000000
7800000000
7800000000
7800000000
7800000000
7800000000
7800000000
7800000000
7800000000
7800000000
7800000000
7800000000
7800000000
7800000000
7800000000
7800000000
7800000000
7800000000
7800000000
7800000000
7FFFFFFFF4
7FFFFFFFF4
0000000000
0000000000
0000780000
0000780000
0000B40000
0000B00000
ENDCHAR
STARTCHAR lcommaaccent
ENCODING 316
SWIDTH 709 0
DWIDTH 23 0
BBX 20 28 3 -6
BITMAP
7800000000
7800000000
7800000000
7800000000
7800000000
7800000000
7800000000
7800000000
7800000000
7800000000
7800000000
7800000000
7800000000
7800000000
7800000000
7800000000
7800000000
3C00000000
2E00000000
1FD4000000
07FFFFFFFD
006BFFFFFD
0000000000
0000000000
00002D0000
00002D0000
00003C0000
0000380000
ENDCHAR
STARTCHAR Lcaron
ENCODING 317
SWIDTH 701 0
DWIDTH 22 0
BBX 19 22 3 0
BITMAP
780001F000
780001E000
780002D000
780002C000
7800038000
7800038000
7800000000
7800000000
7800000000
7800000000
7800000000
7800000000
7800000000
7800000000
7800000000
7800000000
7800000000
7800000000
7800000000
7800000000
7FFFFFFFF4
7FFFFFFFF4
ENDCHAR
STARTCHAR lcaron
ENCODING 318
SWIDTH 709 0
DWIDTH 23 0
BBX 20 22 3 0
BITMAP
780001F000
780001E000
780002D000
780002C000
7800038000
7800038000
7800000000
7800000000
7800000000
7800000000
7800000000
7800000000
7800000000
7800000000
7800000000
7800000000
7800000000
3C00000000
2E00000000
1FD4000000
07FFFFFFFD
006BFFFFFD
ENDCHAR
STARTCHAR Ldot
ENCODING 319
SWIDTH 701 0
DWIDTH 22 0
BBX 19 22 3 0
BITMAP
7800000000
7800000000
7800000000
7800000000
7800000000
7800000000
7800000000
7800000000
7800000000
7800000000
780002F000
780002F000
780002F000
7800000000
7800000000
7800000000
7800000000
7800000000
7800000000
7800000000
7FFFFFFFF4
7FFFFFFFF4
ENDCHAR
STARTCHAR ldotaccent
ENCODING 320
SWIDTH 709 0
DWIDTH 23 0
BBX 20 22 3 0
BITMAP
7800000000
7800000000
7800000000
7800000000
7800000000
7800000000
7800000000
7800000000
7800000000
7800000000
780001F400
780001F400
780001F400
7800000000
7800000000
7800000000
7800000000
3C00000000
2E00000000
1FD4000000
07FFFFFFFD
006BFFFFFD
ENDCHAR
STARTCHAR Lslash
ENCODING 321
SWIDTH 701 0
DWIDTH 22 0
BBX 22 22 0 0
BITMAP
01E000000000
01E000000000
01E000000000
01E000000000
01E000000000
01E000000000
01E000000000
01E000000000
01E01A000000
01E1FE000000
01FFE0000000
07F900000000
BFE000000000
65E000000000
01E000000000
01E000000000
01E000000000
01E000000000
01E000000000
01E000000000
01FFFFFFFFD0
01FFFFFFFFD0
ENDCHAR
STARTCHAR lslash
ENCODING 322
SWIDTH 709 0
DWIDTH 23 0
BBX 23 22 0 0
BITMAP
01E000000000
01E000000000
01E000000000
01E000000000
01E000000000
01E000000000
01E000000000
01E000000000
01E01A000000
01E1FE000000
01FFE0000000
07F900000000
BFE000000000
65E000000000
01E000000000
01E000000000
01E000000000
00F000000000
00F800000000
007E50000000
001FFFFFFFF4
0001AFFFFFF4
ENDCHAR
STARTCHAR Nacute
ENCODING 323
SWIDTH 936 0
DWIDTH 30 0
BBX 24 29 3 0
BITMAP
000000018000
0000001BD000
000001BE4000
00000BE40000
00000A000000
000000000000
000000000000
7D000000002D
7F400000002D
7FD00000002D
7AF40000002D
78BC0000002D
782F0000002D
780BC000002D
7802F000002D
7800B800002D
78002E00002D
78000B80002D
780002E0002D
780000B8002D
7800003E002D
7800000F802D
78000003E02D
78000000F82D
780000007E2D
780000001F6D
7800000007FD
7800000001FD
78000000007D
ENDCHAR
STARTCHAR nacute
ENCODING 324
SWIDTH 933 0
DWIDTH 30 0
BBX 24 29 3 0
BITMAP
000000028000
0000001FC000
000001FE0000
00000BE00000
000009000000
000000000000
000000000000
780006FFE400
7801BFFFFF40
781FF9001BE0
79FE400001F4
7FE40000007C
7F400000003C
78000000002D
78000000002D
78000000002D
78000000002D
78000000002D
78000000002D
78000000002D
78000000002D
78000000002D
78000000002D
78000000002D
78000000002D
78000000002D
78000000002D
78000000002D
78000000002D
ENDCHAR
STARTCHAR Ncommaaccent
ENCODING 325
SWIDTH 936 0
DWIDTH 30 0
BBX 24 28 3 -6
BITMAP
7D000000002D
7F400000002D
7FD00000002D
7AF40000002D
78BC0000002D
782F0000002D
780BC000002D
7802F000002D
7800B800002D
78002E00002D
78000B80002D
780002E0002D
780000B8002D
7800003E002D
7800000F802D
78000003E02D
78000000F82D
780000007E2D
780000001F6D
7800000007FD
7800000001FD
78000000007D
000000000000
000000000000
000003D00000
000003C00000
000007800000
000007400000
ENDCHAR
STARTCHAR ncommaaccent
ENCODING 326
SWIDTH 933 0
DWIDTH 30 0
BBX 24 28 3 -6
BITMAP
780006FFE400
7801BFFFFF40
781FF9001BE0
79FE400001F4
7FE40000007C
7F400000003C
78000000002D
78000000002D
78000000002D
78000000002D
78000000002D
78000000002D
78000000002D
78000000002D
78000000002D
78000000002D
78000000002D
78000000002D
78000000002D
78000000002D
78000000002D
78000000002D
000000000000
000000000000
000003D00000
000003C00000
000007800000
000007400000
ENDCHAR
STARTCHAR Ncaron
ENCODING 327
SWIDTH 936 0
DWIDTH 30 0
BBX 24 29 3 0
BITMAP
00090000A000
000BD007D000
0001B97E0000
00001FF40000
000002800000
000000000000
000000000000
7D000000002D
7F400000002D
7FD00000002D
7AF40000002D
78BC0000002D
782F0000002D
780BC000002D
7802F000002D
7800B800002D
78002E00002D
78000B80002D
780002E0002D
780000B8002D
7800003E002D
7800000F802D
78000003E02D
78000000F82D
780000007E2D
780000001F6D
7800000007FD
7800000001FD
78000000007D
ENDCHAR
STARTCHAR ncaron
ENCODING 328
SWIDTH 933 0
DWIDTH 30 0
BBX 24 29 3 0
BITMAP
000900009000
000B900BD000
0001F9BE0000
00002FE40000
000006400000
000000000000
000000000000
780006FFE400
7801BFFFFF40
781FF9001BE0
79FE400001F4
7FE40000007C
7F400000003C
78000000002D
78000000002D
78000000002D
78000000002D
78000000002D
78000000002D
78000000002D
78000000002D
78000000002D
78000000002D
78000000002D
78000000002D
78000000002D
78000000002D
78000000002D
78000000002D
ENDCHAR
STARTCHAR napostrophe
ENCODING 329
SWIDTH 1025 0
DWIDTH 33 0
BBX 30 22 0 0
BITMAP
3D0780006FFE4000
7C07801BFFFFF400
780781FF9001BE00
B4079FE400001F40
B007FE0000000780
E007F400000003C0
00078000000002D0
00078000000002D0
00078000000002D0
00078000000002D0
00078000000002D0
00078000000002D0
00078000000002D0
00078000000002D0
00078000000002D0
00078000000002D0
00078000000002D0
00078000000002D0
00078000000002D0
00078000000002D0
00078000000002D0
00078000000002D0
ENDCHAR
STARTCHAR Eng
ENCODING 330
SWIDTH 936 0
DWIDTH 30 0
BBX 24 22 3 0
BITMAP
7D000000002D
7F800000002D
7AF00000002D
78BD0000002D
781F8000002D
7807E000002D
7800BD00002D
78002F40002D
780007E0002D
780000BD002D
7800002F402D
78000007E02D
78000001F82D
780000002F6D
780000000BFD
7800000001FD
78000000003D
78000000007C
7800000000F8
7800294017F0
78002FFFFF80
780006BFE900
ENDCHAR
STARTCHAR eng
ENCODING 331
SWIDTH 933 0
DWIDTH 30 0
BBX 24 22 3 0
BITMAP
780006FFE400
7801BFFFFF80
781FF9001BE0
79FE400001F4
7FE40000007C
7F400000003C
78000000002D
78000000002D
78000000002D
78000000002D
78000000002D
78000000002D
78000000002D
78000000002D
78000000002D
78000000002D
78000000002D
78000000007C
7800000000B8
7800194007F0
78001FFFFF80
780006BFF900
ENDCHAR
STARTCHAR Omacron
ENCODING 332
SWIDTH 983 0
DWIDTH 31 0
BBX 28 26 2 0
BITMAP
00002FFFF00000
00002FFFF00000
00000000000000
00000000000000
00006BFFA50000
001BFFFFFFD000
00BF94005BFD00
02F40000006F40
0BC000000007D0
1F0000000001F0
3D0000000000B8
7800000000007C
B400000000003C
B400000000002D
F400000000002D
F400000000002D
B400000000002D
B400000000003C
7800000000007C
3D0000000000B8
1F0000000001F0
0B8000000007D0
02F40000006F40
00BF94005BFD00
001BFFFFFFD000
00006BFFA50000
ENDCHAR
STARTCHAR omacron
ENCODING 333
SWIDTH 983 0
DWIDTH 31 0
BBX 28 26 2 0
BITMAP
00002FFFF00000
00002FFFF00000
00000000000000
00000000000000
00006BFFA50000
001BFFFFFFD000
00BF94005BFD00
02F40000006F40
0BC000000007D0
1F0000000001F0
3D0000000000B8
7800000000007C
B400000000003C
B400000000002D
F400000000002D
F400000000002D
B400000000002D
B400000000003C
7800000000007C
3D0000000000B8
1F0000000001F0
0B8000000007D0
02F40000006F40
00BF94005BFD00
001BFFFFFFD000
00006BFFA50000
ENDCHAR
STARTCHAR Obreve
ENCODING 334
SWIDTH 983 0
DWIDTH 31 0
BBX 28 28 2 0
BITMAP
000074003C0000
00003E01B80000
00001FFFE00000
000002FE400000
00000000000000
00000000000000
00006BFFA50000
001BFFFFFFD000
00BF94005BFD00
02F40000006F40
0BC000000007D0
1F0000000001F0
3D0000000000B8
7800000000007C
B400000000003C
B400000000002D
F400000000002D
F400000000002D
B400000000002D
B400000000003C
7800000000007C
3D0000000000B8
1F0000000001F0
0B8000000007D0
02F40000006F40
00BF94005BFD00
001BFFFFFFD000
00006BFFA50000
ENDCHAR
STARTCHAR obreve
ENCODING 335
SWIDTH 983 0
DWIDTH 31 0
BBX 28 28 2 0
BITMAP
000074003C0000
00003E01B80000
00001FFFE00000
000002FE400000
00000000000000
00000000000000
00006BFFA50000
001BFFFFFFD000
00BF94005BFD00
02F40000006F40
0BC000000007D0
1F0000000001F0
3D0000000000B8
7800000000007C
B400000000003C
B400000000002D
F400000000002D
F400000000002D
B400000000002D
B400000000003C
7800000000007C
3D0000000000B8
1F0000000001F0
0B8000000007D0
02F40000006F40
00BF94005BFD00
001BFFFFFFD000
00006BFFA50000
ENDCHAR
STARTCHAR Ohungarumlaut
ENCODING 336
SWIDTH 983 0
DWIDTH 31 0
BBX 28 28 2 0
BITMAP
00000024060000
000001F42F0000
00000B81F40000
00001902800000
00000000000000
00000000000000
00006BFFA50000
001BFFFFFFD000
00BF94005BFD00
02F40000006F40
0BC000000007D0
1F0000000001F0
3D0000000000B8
7800000000007C
B400000000003C
B400000000002D
F400000000002D
F400000000002D
B400000000002D
B400000000003C
7800000000007C
3D0000000000B8
1F0000000001F0
0B8000000007D0
02F40000006F40
00BF94005BFD00
001BFFFFFFD000
00006BFFA50000
ENDCHAR
STARTCHAR ohungarumlaut
ENCODING 337
SWIDTH 983 0
DWIDTH 31 0
BBX 28 28 2 0
BITMAP
00000024060000
000001F42F0000
00000B81F40000
00001902800000
00000000000000
00000000000000
00006BFFA50000
001BFFFFFFD000
00BF94005BFD00
02F40000006F40
0BC000000007D0
1F0000000001F0
3D0000000000B8
7800000000007C
B400000000003C
B400000000002D
F400000000002D
F400000000002D
B400000000002D
B400000000003C
7800000000007C
3D0000000000B8
1F0000000001F0
0B8000000007D0
02F40000006F40
00BF94005BFD00
001BFFFFFFD000
00006BFFA50000
ENDCHAR
STARTCHAR OE
ENCODING 338
SWIDTH 1338 0
DWIDTH 43 0
BBX 39 22 2 0
BITMAP
00006BFFFFFFFFFFFFF4
001BFFFFFFFFFFFFFFF4
00BF940005F400000000
02F8000000B400000000
0BD0000000B400000000
1F00000000B400000000
3D00000000B400000000
7800000000B400000000
B400000000B400000000
B400000000BFFFFFFFD0
F400000000BFFFFFFFD0
F400000000B400000000
B400000000B400000000
B400000000B400000000
7800000000B400000000
3D00000000B400000000
1F00000000B400000000
0B80000000B400000000
02F4000000B400000000
00BF940005F400000000
001BFFFFFFFFFFFFFFF4
00006BFFFFFFFFFFFFF4
ENDCHAR
STARTCHAR oe
ENCODING 339
SWIDTH 1688 0
DWIDTH 54 0
BBX 51 22 2 0
BITMAP
00006BFFA50000001AFFA40000
001BFFFFFFD00002FFFFFF8000
00BF94005BFD001FE5005BF400
02F40000006F40BE000000BD00
0BC000000007D1F40000001F40
1F0000000001F7D00000000780
3D0000000000BF8000000002D0
7800000000007F0000000001E0
B400000000003E0000000000F0
B400000000002D0000000000B0
F400000000002FFFFFFFFFFFF4
F400000000002FFFFFFFFFFFF4
B400000000002D000000000000
B400000000003E000000000000
7800000000007F000000000000
3D0000000000BF800000000000
1F0000000001F7D00000000000
0B8000000007D1F40000000000
02F40000006F40BE4000000240
00BF94005BFD001FF94005BF80
001BFFFFFFD00002FFFFFFF900
00006BFFA50000001AFFFA4000
ENDCHAR
STARTCHAR Racute
ENCODING 340
SWIDTH 833 0
DWIDTH 27 0
BBX 22 29 3 0
BITMAP
000000600000
000002F80000
00002F900000
0001F9000000
000190000000
000000000000
000000000000
7FFFFFFA4000
7FFFFFFFE400
78000016FD00
780000002F00
780000000F40
780000000B40
780000000B40
780000000B40
780000000F40
780000002F00
78000006FD00
7FFFFFFFF400
7FFFFFFE4000
7800001E0000
7800000B8000
78000003D000
78000001F400
780000007C00
780000002E00
780000000B80
7800000003D0
7800000001F0
ENDCHAR
STARTCHAR racute
ENCODING 341
SWIDTH 609 0
DWIDTH 20 0
BBX 17 29 3 0
BITMAP
0000018000
00001FC000
0001FE0000
000BE00000
0009000000
0000000000
0000000000
78001BFF40
7802FFFF80
782FE40140
78BD000000
7BE0000000
7F40000000
7D00000000
7800000000
7800000000
7800000000
7800000000
7800000000
7800000000
7800000000
7800000000
7800000000
7800000000
7800000000
7800000000
7800000000
7800000000
7800000000
ENDCHAR
STARTCHAR Rcommaaccent
ENCODING 342
SWIDTH 833 0
DWIDTH 27 0
BBX 22 28 3 -6
BITMAP
7FFFFFFA4000
7FFFFFFFE400
78000016FD00
780000002F00
780000000F40
780000000B40
780000000B40
780000000B40
780000000F40
780000002F00
78000006FD00
7FFFFFFFF400
7FFFFFFE4000
7800001E0000
7800000B8000
78000003D000
78000001F400
780000007C00
780000002E00
780000000B80
7800000003D0
7800000001F0
000000000000
000000000000
00002E000000
00002D000000
00003C000000
000038000000
ENDCHAR
STARTCHAR rcommaaccent
ENCODING 343
SWIDTH 609 0
DWIDTH 20 0
BBX 17 28 3 -6
BITMAP
78001BFF40
7802FFFF80
782FE40140
78BD000000
7BE0000000
7F40000000
7D00000000
7800000000
7800000000
7800000000
7800000000
7800000000
7800000000
7800000000
7800000000
7800000000
7800000000
7800000000
7800000000
7800000000
7800000000
7800000000
0000000000
0000000000
7C00000000
7800000000
B400000000
B000000000
ENDCHAR
STARTCHAR Rcaron
ENCODING 344
SWIDTH 833 0
DWIDTH 27 0
BBX 22 29 3 0
BITMAP
028000180000
01F401F80000
002F5BD00000
0007FE000000
0000A4000000
000000000000
000000000000
7FFFFFFA4000
7FFFFFFFE400
78000016FD00
780000002F00
780000000F40
780000000B40
780000000B40
780000000B40
780000000F40
780000002F00
78000006FD00
7FFFFFFFF400
7FFFFFFE4000
7800001E0000
7800000B8000
78000003D000
78000001F400
780000007C00
780000002E00
780000000B80
7800000003D0
7800000001F0
ENDCHAR
STARTCHAR rcaron
ENCODING 345
SWIDTH 609 0
DWIDTH 20 0
BBX 17 29 3 0
BITMAP
0900009000
0B900BD000
01F97E0000
002FE40000
0006400000
0000000000
0000000000
78001BFF40
7802FFFF80
782FE40140
78BD000000
7BE0000000
7F40000000
7D00000000
7800000000
7800000000
7800000000
7800000000
7800000000
7800000000
7800000000
7800000000
7800000000
7800000000
7800000000
7800000000
7800000000
7800000000
7800000000
ENDCHAR
STARTCHAR Sacute
ENCODING 346
SWIDTH 787 0
DWIDTH 25 0
BBX 21 29 2 0
BITMAP
000000090000
000000BE0000
000007F40000
00007F400000
000064000000
000000000000
000000000000
001AFFE50000
02FFFFFFE400
1FE50016FC00
3E0000001800
7C0000000000
780000000000
7C0000000000
2E0000000000
0BE400000000
01FF94000000
001AFF900000
00001AFE4000
0000001BF400
000000007E00
000000000F40
000000000780
000000000780
000000000B80
640000002F40
7F940016FD00
1BFFFFFFE400
006BFFE90000
ENDCHAR
STARTCHAR sacute
ENCODING 347
SWIDTH 787 0
DWIDTH 25 0
BBX 21 29 2 0
BITMAP
000000090000
000000BE0000
000007F40000
00007F400000
000064000000
000000000000
000000000000
001AFFE50000
02FFFFFFE400
1FE50016FC00
3E0000001800
7C0000000000
780000000000
7C0000000000
2E0000000000
0BE400000000
01FF94000000
001AFF900000
00001AFE4000
0000001BF400
000000007E00
000000000F40
000000000780
000000000780
000000000B80
640000002F40
7F940016FD00
1BFFFFFFE400
006BFFE90000
ENDCHAR
STARTCHAR Scircumflex
ENCODING 348
SWIDTH 787 0
DWIDTH 25 0
BBX 21 29 2 0
BITMAP
000019000000
0000BF800000
0007E6F40000
006E006E0000
006400060000
000000000000
000000000000
001AFFE50000
02FFFFFFE400
1FE50016FC00
3E0000001800
7C0000000000
780000000000
7C0000000000
2E0000000000
0BE400000000
01FF94000000
001AFF900000
00001AFE4000
0000001BF400
000000007E00
000000000F40
000000000780
000000000780
000000000B80
640000002F40
7F940016FD00
1BFFFFFFE400
006BFFE90000
ENDCHAR
STARTCHAR scircumflex
ENCODING 349
SWIDTH 787 0
DWIDTH 25 0
BBX 21 29 2 0
BITMAP
000019000000
0000BF800000
0007E6F40000
006E006E0000
006400060000
000000000000
000000000000
001AFFE50000
02FFFFFFE400
1FE50016FC00
3E0000001800
7C0000000000
780000000000
7C0000000000
2E0000000000
0BE400000000
01FF94000000
001AFF900000
00001AFE4000
0000001BF400
000000007E00
000000000F40
000000000780
000000000780
000000000B80
640000002F40
7F940016FD00
1BFFFFFFE400
006BFFE90000
ENDCHAR
STARTCHAR Scedilla
ENCODING 350
SWIDTH 787 0
DWIDTH 25 0
BBX 21 28 2 -6
BITMAP
001AFFE50000
02FFFFFFE400
1FE50016FC00
3E0000001800
7C0000000000
780000000000
7C0000000000
2E0000000000
0BE400000000
01FF94000000
001BFF900000
00001BFE4000
0000001BF400
000000007E00
000000000F40
000000000780
000000000780
000000000B80
640000002F40
7F940016FD00
1BFFFFFFE400
006BFFE90000
00001C000000
00002F900000
000001F00000
000000B00000
000241F00000
0003FF800000
ENDCHAR
STARTCHAR scedilla
ENCODING 351
SWIDTH 787 0
DWIDTH 25 0
BBX 21 28 2 -6
BITMAP
001AFFE50000
02FFFFFFE400
1FE50016FC00
3E0000001800
7C0000000000
780000000000
7C0000000000
2E0000000000
0BE400000000
01FF94000000
001BFF900000
00001BFE4000
0000001BF400
000000007E00
000000000F40
000000000780
000000000780
000000000B80
640000002F40
7F940016FD00
1BFFFFFFE400
006BFFE90000
00001C000000
00002F900000
000001F00000
000000B00000
000241F00000
0003FF800000
ENDCHAR
STARTCHAR Scaron
ENCODING 352
SWIDTH 787 0
DWIDTH 25 0
BBX 21 29 2 0
BITMAP
006400060000
007E006E0000
000BE6F40000
0001BF800000
00001D000000
000000000000
000000000000
001AFFE50000
02FFFFFFE400
1FE50016FC00
3E0000001800
7C0000000000
780000000000
7C0000000000
2E0000000000
0BE400000000
01FF94000000
001AFF900000
00001AFE4000
0000001BF400
000000007E00
000000000F40
000000000780
000000000780
000000000B80
640000002F40
7F940016FD00
1BFFFFFFE400
006BFFE90000
ENDCHAR
STARTCHAR scaron
ENCODING 353
SWIDTH 787 0
DWIDTH 25 0
BBX 21 29 2 0
BITMAP
006400060000
007E006E0000
000BE6F40000
0001BF800000
00001D000000
000000000000
000000000000
001AFFE50000
02FFFFFFE400
1FE50016FC00
3E0000001800
7C0000000000
780000000000
7C0000000000
2E0000000000
0BE400000000
01FF94000000
001AFF900000
00001AFE4000
0000001BF400
000000007E00
000000000F40
000000000780
000000000780
000000000B80
640000002F40
7F940016FD00
1BFFFFFFE400
006BFFE90000
ENDCHAR
STARTCHAR Tcommaaccent
ENCODING 354
SWIDTH 708 0
DWIDTH 23 0
BBX 22 28 0 -6
BITMAP
7FFFFFFFFFF0
7FFFFFFFFFF0
00000B400000
00000B400000
00000B400000
00000B400000
00000B400000
00000B400000
00000B400000
00000B400000
00000B400000
00000B400000
00000B400000
00000B400000
00000B400000
00000B400000
00000B400000
00000B400000
00000B400000
00000B400000
00000B400000
00000B400000
000000000000
000000000000
00000B800000
00000B400000
00000F000000
00000E000000
ENDCHAR
STARTCHAR tcommaaccent
ENCODING 355
SWIDTH 708 0
DWIDTH 23 0
BBX 22 28 0 -6
BITMAP
7FFFFFFFFFF0
7FFFFFFFFFF0
00000B400000
00000B400000
00000B400000
00000B400000
00000B400000
00000B400000
00000B400000
00000B400000
00000B400000
00000B400000
00000B400000
00000B400000
00000B400000
00000B400000
00000B400000
00000B400000
00000B400000
00000B400000
00000B400000
00000B400000
000000000000
000000000000
00000B800000
00000B400000
00000F000000
00000E000000
ENDCHAR
STARTCHAR Tcaron
ENCODING 356
SWIDTH 708 0
DWIDTH 23 0
BBX 22 29 0 0
BITMAP
001800018000
001F801B8000
0002F5BD0000
00006FE00000
000006400000
000000000000
000000000000
7FFFFFFFFFF0
7FFFFFFFFFF0
00000B400000
00000B400000
00000B400000
00000B400000
00000B400000
00000B400000
00000B400000
00000B400000
00000B400000
00000B400000
00000B400000
00000B400000
00000B400000
00000B400000
00000B400000
00000B400000
00000B400000
00000B400000
00000B400000
00000B400000
ENDCHAR
STARTCHAR tcaron
ENCODING 357
SWIDTH 708 0
DWIDTH 23 0
BBX 22 29 0 0
BITMAP
001800018000
001F801B8000
0002F9BD0000
00006FE00000
000006400000
000000000000
000000000000
7FFFFFFFFFF0
7FFFFFFFFFF0
00000B400000
00000B400000
00000B400000
00000B400000
00000B400000
00000B400000
00000B400000
00000B400000
00000B400000
00000B400000
00000B400000
00000B400000
00000B400000
00000B400000
00000B400000
00000B400000
00000B400000
00000B400000
00000B400000
00000B400000
ENDCHAR
STARTCHAR Tbar
ENCODING 358
SWIDTH 708 0
DWIDTH 23 0
BBX 22 22 0 0
BITMAP
7FFFFFFFFFF0
7FFFFFFFFFF0
00000B400000
00000B400000
00000B400000
00000B400000
00000B400000
00000B400000
03FFFFFFFF00
03FFFFFFFF00
00000B400000
00000B400000
00000B400000
00000B400000
00000B400000
00000B400000
00000B400000
00000B400000
00000B400000
00000B400000
00000B400000
00000B400000
ENDCHAR
STARTCHAR tbar
ENCODING 359
SWIDTH 708 0
DWIDTH 23 0
BBX 22 22 0 0
BITMAP
7FFFFFFFFFF0
7FFFFFFFFFF0
00000B400000
00000B400000
00000B400000
00000B400000
00000B400000
00000B400000
03FFFFFFFF00
03FFFFFFFF00
00000B400000
00000B400000
00000B400000
00000B400000
00000B400000
00000B400000
00000B400000
00000B400000
00000B400000
00000B400000
00000B400000
00000B400000
ENDCHAR
STARTCHAR Utilde
ENCODING 360
SWIDTH 891 0
DWIDTH 29 0
BBX 22 27 3 0
BITMAP
0002F9438000
000BFFFF4000
000E06FE0000
000000000000
000000000000
B400000000F0
B400000000F0
B400000000F0
B400000000F0
B400000000F0
B400000000F0
B400000000F0
B400000000F0
B400000000F0
B400000000F0
B400000000F0
B400000000F0
B400000000F0
B400000000F0
B400000000F0
B400000000F0
7800000001F0
3E00000003D0
1F8000001FC0
07F94006FF00
01BFFFFFF800
0006BFFA4000
ENDCHAR
STARTCHAR utilde
ENCODING 361
SWIDTH 931 0
DWIDTH 30 0
BBX 24 27 3 0
BITMAP
0001FE41D000
0007FFFFC000
000B45BE4000
000000000000
000000000000
78000000002D
78000000002D
78000000002D
78000000002D
78000000002D
78000000002D
78000000002D
78000000002D
78000000002D
78000000002D
78000000002D
78000000002D
78000000002D
78000000002D
78000000002D
78000000003D
7800000001FD
3D0000001BFD
1F000001BE2D
0BE4016FE42D
02FFFFFE402D
001BFE90002D
ENDCHAR
STARTCHAR Umacron
ENCODING 362
SWIDTH 891 0
DWIDTH 29 0
BBX 22 26 3 0
BITMAP
0003FFFE0000
0003FFFE0000
000000000000
000000000000
B400000000F0
B400000000F0
B400000000F0
B400000000F0
B400000000F0
B400000000F0
B400000000F0
B400000000F0
B400000000F0
B400000000F0
B400000000F0
B400000000F0
B400000000F0
B400000000F0
B400000000F0
B400000000F0
7800000001F0
3E00000003D0
1F8000001FC0
07F94006FF00
01BFFFFFF800
0006BFFA4000
ENDCHAR
STARTCHAR umacron
ENCODING 363
SWIDTH 931 0
DWIDTH 30 0
BBX 24 26 3 0
BITMAP
0001FFFF0000
0001FFFF0000
000000000000
000000000000
78000000002D
78000000002D
78000000002D
78000000002D
78000000002D
78000000002D
78000000002D
78000000002D
78000000002D
78000000002D
78000000002D
78000000002D
78000000002D
78000000002D
78000000002D
78000000003D
7800000001FD
3D0000001BFD
1F000001BE2D
0BE4016FE42D
02FFFFFE402D
001BFE90002D
ENDCHAR
STARTCHAR Ubreve
ENCODING 364
SWIDTH 891 0
DWIDTH 29 0
BBX 22 28 3 0
BITMAP
000F00078000
000BD02F0000
0002FFFD0000
00006FE40000
000000000000
000000000000
B400000000F0
B400000000F0
B400000000F0
B400000000F0
B400000000F0
B400000000F0
B400000000F0
B400000000F0
B400000000F0
B400000000F0
B400000000F0
B400000000F0
B400000000F0
B400000000F0
B400000000F0
B400000000F0
7800000001F0
3E00000003D0
1F8000001FC0
07F94006FF00
01BFFFFFF800
0006BFFA4000
ENDCHAR
STARTCHAR ubreve
ENCODING 365
SWIDTH 931 0
DWIDTH 30 0
BBX 24 28 3 0
BITMAP
00078002C000
0003E01B8000
0001FFFE0000
00002FE40000
000000000000
000000000000
78000000002D
78000000002D
78000000002D
78000000002D
78000000002D
78000000002D
78000000002D
78000000002D
78000000002D
78000000002D
78000000002D
78000000002D
78000000002D
78000000002D
78000000002D
78000000003D
7800000001FD
3D0000001BFD
1F000001BE2D
0BE4016FE42D
02FFFFFE402D
001BFE90002D
ENDCHAR
STARTCHAR Uring
ENCODING 366
SWIDTH 891 0
DWIDTH 29 0
BBX 22 29 3 0
BITMAP
00006FE00000
0001E0780000
0002C01D0000
0002C01D0000
0001E0780000
00006FE00000
000000000000
B400000000F0
B400000000F0
B400000000F0
B400000000F0
B400000000F0
B400000000F0
B400000000F0
B400000000F0
B400000000F0
B400000000F0
B400000000F0
B400000000F0
B400000000F0
B400000000F0
B400000000F0
B400000000F0
7800000001F0
3E00000003D0
1F8000001FC0
07F94006FF00
01BFFFFFF800
0006BFFA4000
ENDCHAR
STARTCHAR uring
ENCODING 367
SWIDTH 931 0
DWIDTH 30 0
BBX 24 29 3 0
BITMAP
00001BE40000
0000B41D0000
0000D00B0000
0000D00B0000
0000B41D0000
00001FE40000
000000000000
78000000002D
78000000002D
78000000002D
78000000002D
78000000002D
78000000002D
78000000002D
78000000002D
78000000002D
78000000002D
78000000002D
78000000002D
78000000002D
78000000002D
78000000002D
78000000003D
7800000001FD
3D0000001BFD
1F000001BE2D
0BE4016FE42D
02FFFFFE402D
001BFE90002D
ENDCHAR
STARTCHAR Uhungarumlaut
ENCODING 368
SWIDTH 891 0
DWIDTH 29 0
BBX 22 28 3 0
BITMAP
000006009000
00002E07D000
0001F42E4000
000280640000
000000000000
000000000000
B400000000F0
B400000000F0
B400000000F0
B400000000F0
B400000000F0
B400000000F0
B400000000F0
B400000000F0
B400000000F0
B400000000F0
B400000000F0
B400000000F0
B400000000F0
B400000000F0
B400000000F0
B400000000F0
7800000001F0
3E00000003D0
1F8000001FC0
07F94006FF00
01BFFFFFF800
0006BFFA4000
ENDCHAR
STARTCHAR uhungarumlaut
ENCODING 369
SWIDTH 931 0
DWIDTH 30 0
BBX 24 28 3 0
BITMAP
000002406000
00001F82F400
0000B91F4000
000190280000
000000000000
000000000000
78000000002D
78000000002D
78000000002D
78000000002D
78000000002D
78000000002D
78000000002D
78000000002D
78000000002D
78000000002D
78000000002D
78000000002D
78000000002D
78000000002D
78000000002D
78000000003D
7800000001FD
3D0000001BFD
1F000001BE2D
0BE4016FE42D
02FFFFFE402D
001BFE90002D
ENDCHAR
STARTCHAR Uogonek
ENCODING 370
SWIDTH 891 0
DWIDTH 29 0
BBX 22 28 3 -6
BITMAP
B400000000F0
B400000000F0
B400000000F0
B400000000F0
B400000000F0
B400000000F0
B400000000F0
B400000000F0
B400000000F0
B400000000F0
B400000000F0
B400000000F0
B400000000F0
B400000000F0
B400000000F0
B400000000F0
7800000001F0
3E00000003E0
1F8000001FC0
07F94006FF00
01BFFFFFF800
0016FFFA4000
00001E000000
000078000000
0000B4000000
0000B4000000
000078180000
00001BFD0000
ENDCHAR
STARTCHAR uogonek
ENCODING 371
SWIDTH 931 0
DWIDTH 30 0
BBX 26 28 3 -6
BITMAP
78000000002D00
78000000002D00
78000000002D00
78000000002D00
78000000002D00
78000000002D00
78000000002D00
78000000002D00
78000000002D00
78000000002D00
78000000002D00
78000000002D00
78000000002D00
78000000002D00
78000000002D00
78000000003D00
7800000001FD00
3D0000001BFD00
1F000001BE2D00
0BE4016FE42D00
02FFFFFE402D00
001BFE90002D00
0000000000B400
0000000002D000
00000000078000
000000000B4000
00000000078090
0000000001BFD0
ENDCHAR
STARTCHAR Wcircumflex
ENCODING 372
SWIDTH 1266 0
DWIDTH 41 0
BBX 38 29 1 0
BITMAP
000000000A4000000000
000000007FE000000000
00000002F5BD00000000
0000001F801B80000000
00000018000180000000
00000000000000000000
00000000000000000000
B80000001F80000000F0
7C0000002FC0000001E0
2D0000003ED0000002D0
1E00000079F0000007C0
0F000000B4F400000B80
0B400000F07800000F00
07C00001E03C00001E00
03D00003D02D00002D00
01E00007801E00003C00
00F0000B400F0000B800
00B4000F000B4000F400
0078001E0007C001E000
003D002D0002D002D000
002E003C0001E003C000
000F00780000F0078000
000B40F40000B40F4000
000781E00000781F0000
0003C2D000003C2D0000
0002E3C000002D3C0000
0000F78000000F780000
0000BF4000000BF40000
00007F00000007F00000
ENDCHAR
STARTCHAR wcircumflex
ENCODING 373
SWIDTH 1266 0
DWIDTH 41 0
BBX 38 29 1 0
BITMAP
000000000A4000000000
000000007FE000000000
00000002F5BD00000000
0000001F801B80000000
00000018000180000000
00000000000000000000
00000000000000000000
B80000001F80000000F0
7C0000002FC0000001E0
2D0000003ED0000002D0
1E00000079F0000007C0
0F000000B4F400000B80
0B400000F07800000F00
07C00001E03C00001E00
03D00003D02D00002D00
01E00007801E00003C00
00F0000B400F0000B800
00B4000F000B4000F400
0078001E0007C001E000
003D002D0002D002D000
002E003C0001E003C000
000F00780000F0078000
000B40F40000B40F4000
000781E00000781F0000
0003C2D000003C2D0000
0002E3C000002D3C0000
0000F78000000F780000
0000BF4000000BF40000
00007F00000007F00000
ENDCHAR
STARTCHAR Ycircumflex
ENCODING 374
SWIDTH 763 0
DWIDTH 24 0
BBX 22 29 1 0
BITMAP
00000A400000
00007FE00000
0002F5BD0000
001F801B8000
001800018000
000000000000
000000000000
7800000001E0
2E00000007C0
0B4000000F40
03D000002D00
01F00000B800
00780001F000
002E0007C000
000F400F4000
0003D02E0000
0001F0B80000
0000B9F00000
00002FD00000
00000F400000
00000B400000
00000B400000
00000B400000
00000B400000
00000B400000
00000B400000
00000B400000
00000B400000
00000B400000
ENDCHAR
STARTCHAR ycircumflex
ENCODING 375
SWIDTH 911 0
DWIDTH 29 0
BBX 23 29 3 0
BITMAP
00000A400000
00007FE00000
0002F5BD0000
001F801F8000
002800018000
000000000000
000000000000
F00000000078
F00000000078
F00000000078
F00000000078
F00000000078
F00000000078
F00000000078
F000000000F8
B400000002F8
780000000BF8
3D0000002FB8
1F800001FC78
0BF9005FE078
01FFFFFE4078
001AFFA400B4
0000000000F4
0000000001F0
0000000007D0
900000006F80
FE94005BFD00
6FFFFFFFE000
01ABFFE90000
ENDCHAR
STARTCHAR Ydieresis
ENCODING 376
SWIDTH 763 0
DWIDTH 24 0
BBX 22 26 1 0
BITMAP
0003D02E0000
0003D02E0000
000000000000
000000000000
7800000001E0
2E00000007C0
0B4000000F40
03D000002D00
01F00000B800
00780001F000
002E0007C000
000F400F4000
0003D02E0000
0001F0B80000
0000B9F00000
00002FD00000
00000F400000
00000B400000
00000B400000
00000B400000
00000B400000
00000B400000
00000B400000
00000B400000
00000B400000
00000B400000
ENDCHAR
STARTCHAR Zacute
ENCODING 377
SWIDTH 728 0
DWIDTH 23 0
BBX 20 29 2 0
BITMAP
0000001800
000001FD00
00001BE400
0000BE0000
0000A00000
0000000000
0000000000
7FFFFFFFFC
7FFFFFFFF8
00000002E0
0000000780
0000001F00
0000007D00
000000F400
000002D000
00000B8000
00002E0000
00007C0000
0001F00000
0003D00000
000F400000
002E000000
00B8000000
02E0000000
07C0000000
1F40000000
3D00000000
BFFFFFFFFD
BFFFFFFFFD
ENDCHAR
STARTCHAR zacute
ENCODING 378
SWIDTH 728 0
DWIDTH 23 0
BBX 20 29 2 0
BITMAP
0000001800
000001FD00
00001BE400
0000BE0000
0000A00000
0000000000
0000000000
7FFFFFFFFC
7FFFFFFFF8
00000002E0
0000000780
0000001F00
0000007D00
000000F400
000002D000
00000B8000
00002E0000
00007C0000
0001F00000
0003D00000
000F400000
002E000000
00B8000000
02E0000000
07C0000000
1F40000000
3D00000000
BFFFFFFFFD
BFFFFFFFFD
ENDCHAR
STARTCHAR Zdotaccent
ENCODING 379
SWIDTH 728 0
DWIDTH 23 0
BBX 20 26 2 0
BITMAP
00007C0000
00007C0000
0000000000
0000000000
7FFFFFFFFC
7FFFFFFFF8
00000002E0
0000000780
0000001F00
0000007D00
000000F400
000002D000
00000B8000
00002E0000
00007C0000
0001F00000
0003D00000
000F400000
002E000000
00B8000000
02E0000000
07C0000000
1F40000000
3D00000000
BFFFFFFFFD
BFFFFFFFFD
ENDCHAR
STARTCHAR zdotaccent
ENCODING 380
SWIDTH 728 0
DWIDTH 23 0
BBX 20 26 2 0
BITMAP
00007C0000
00007C0000
0000000000
0000000000
7FFFFFFFFC
7FFFFFFFF8
00000002E0
0000000780
0000001F00
0000007D00
000000F400
000002D000
00000B8000
00002E0000
00007C0000
0001F00000
0003D00000
000F400000
002E000000
00B8000000
02E0000000
07C0000000
1F40000000
3D00000000
BFFFFFFFFD
BFFFFFFFFD
ENDCHAR
STARTCHAR Zcaron
ENCODING 381
SWIDTH 728 0
DWIDTH 23 0
BBX 20 29 2 0
BITMAP
0090000A00
00BD007D00
001B97E000
0001FF4000
0000280000
0000000000
0000000000
7FFFFFFFFC
7FFFFFFFF8
00000002E0
0000000780
0000001F00
0000007D00
000000F400
000002D000
00000B8000
00002E0000
00007C0000
0001F00000
0003D00000
000F400000
002E000000
00B8000000
02E0000000
07C0000000
1F40000000
3D00000000
BFFFFFFFFD
BFFFFFFFFD
ENDCHAR
STARTCHAR zcaron
ENCODING 382
SWIDTH 728 0
DWIDTH 23 0
BBX 20 29 2 0
BITMAP
0090000A00
00BD007D00
001B97E000
0001FF4000
0000280000
0000000000
0000000000
7FFFFFFFFC
7FFFFFFFF8
00000002E0
0000000780
0000001F00
0000007D00
000000F400
000002D000
00000B8000
00002E0000
00007C0000
0001F00000
0003D00000
000F400000
002E000000
00B8000000
02E0000000
07C0000000
1F40000000
3D00000000
BFFFFFFFFD
BFFFFFFFFD
ENDCHAR
STARTCHAR florin
ENCODING 402
SWIDTH 835 0
DWIDTH 27 0
BBX 25 23 1 -1
BITMAP
000000006BF900
00000001FFFF80
00000007E40580
0000000F800000
0000001F000000
0000002E000000
0000003D000000
0000003C000000
0002FFFFFE0000
0002FFFFFE0000
000000F0000000
000001E0000000
000002E0000000
000003D0000000
000007C0000000
00000B80000000
00000F40000000
00001F00000000
00002E00000000
00007C00000000
9406F400000000
FFFFD000000000
6BFE4000000000
ENDCHAR
STARTCHAR AEacute
ENCODING 508
SWIDTH 1172 0
DWIDTH 38 0
BBX 35 29 0 0
BITMAP
000000000000028000
0000000000001FC000
000000000001FE0000
00000000000BE00000
000000000009000000
000000000000000000
000000000000000000
0000000BFFFFFFFFFC
0000001FFFFFFFFFFC
0000003D3C00000000
000000B83C00000000
000001E03C00000000
000003D03C00000000
00000B403C00000000
00001E003C00000000
00003D003C00000000
0000B4003FFFFFFFF0
0001E0003FFFFFFFF0
0003C0003C00000000
000B40003C00000000
001E00003C00000000
003FFFFFFC00000000
00BFFFFFFC00000000
01F000003C00000000
03D000003C00000000
0B8000003C00000000
1F0000003C00000000
3D0000003FFFFFFFFC
BC0000003FFFFFFFFC
ENDCHAR
STARTCHAR aeacute
ENCODING 509
SWIDTH 1551 0
DWIDTH 50 0
BBX 46 29 2 0
BITMAP
000000000000064000000000
0000000000002F8000000000
000000000002FD0000000000
00000000001F900000000000
000000000019000000000000
000000000000000000000000
000000000000000000000000
0006BFFE9000001BFFA40000
01BFFFFFFD0006FFFFFF4000
0FE94005AF802FE4005BE000
0900000006E0BD000001BC00
0000000000B6E00000002E00
00000000003FC00000000B40
00000000003F4000000003C0
00000000003E0000000002D0
00000056ABFD0000000001E0
0001AFFFFFFC0000000000E0
006FFFA9503FFFFFFFFFFFE0
07FE5000003FFFFFFFFFFFF0
1F900000003C000000000000
7D000000002D000000000000
B4000000001E000000000000
F0000000000F000000000000
F0000000001F800000000000
F400000000BFE00000000000
7D0000001BF9BE0000000600
2FD4005AFF802FE50005BF00
0BFFFFFFE40006FFFFFFF900
006FFFA50000001AFFFA4000
ENDCHAR
STARTCHAR Oslashacute
ENCODING 510
SWIDTH 983 0
DWIDTH 31 0
BBX 28 31 2 -2
BITMAP
00000000180000
00000001FC0000
0000001BE40000
000000BE000000
000000A0000000
00000000000F00
00000000002D00
00006BFFA5B400
001BFFFFFFF000
00BF94001BFD00
02F400000B6F40
0BC000001E07D0
1F0000003801F0
3D000000B000B4
78000002D0007C
B400000780003C
B400000F00002D
F400002D00002D
F00000B400002D
B40001E000002D
B40003C000003C
78000B4000007C
3D002D000000B8
2E0078000001F0
0B80F0000007D0
03F6D000006F40
00BFD4005BFD00
001FFFFFFFD000
003D6BFFA50000
00B40000000000
02D00000000000
ENDCHAR
STARTCHAR oslashacute
ENCODING 511
SWIDTH 983 0
DWIDTH 31 0
BBX 28 31 2 -2
BITMAP
00000000180000
00000001FC0000
0000001BE40000
000000BE000000
000000A0000000
00000000000F00
00000000002D00
00006BFFA5B400
001BFFFFFFF000
00BF94001BFD00
02F400000B6F40
0BC000001E07D0
1F0000003801F0
3D000000B000B4
78000002D0007C
B400000780003C
B400000F00002D
F400002D00002D
F00000B400002D
B40001E000002D
B40003C000003C
78000B4000007C
3D002D000000B8
2E0078000001F0
0B80F0000007D0
03F6D000006F40
00BFD4005BFD00
001FFFFFFFD000
003D6BFFA50000
00B40000000000
02D00000000000
ENDCHAR
STARTCHAR dotlessj
ENCODING 567
SWIDTH 590 0
DWIDTH 19 0
BBX 16 22 0 0
BITMAP
0000002D
0000002D
0000002D
0000002D
0000002D
0000002D
0000002D
0000002D
0000002D
0000002D
0000002D
0000002D
0000002D
0000002D
0000002D
0000002D
0000003D
0000007C
000001F4
E5001BE0
FFFFFF80
1AFFE400
ENDCHAR
STARTCHAR circumflex
ENCODING 710
SWIDTH 527 0
DWIDTH 17 0
BBX 13 5 2 18
BITMAP
001D0000
00BF8000
07E6F400
6E006E00
64000640
ENDCHAR
STARTCHAR caron
ENCODING 711
SWIDTH 527 0
DWIDTH 17 0
BBX 13 5 2 18
BITMAP
64000640
6E006E00
07E6F400
00BF8000
001D0000
ENDCHAR
STARTCHAR breve
ENCODING 728
SWIDTH 527 0
DWIDTH 17 0
BBX 11 4 3 18
BITMAP
B40078
7D01F4
2FFFD0
06FE40
ENDCHAR
STARTCHAR dotaccent
ENCODING 729
SWIDTH 527 0
DWIDTH 17 0
BBX 3 2 7 18
BITMAP
B8
B8
ENDCHAR
STARTCHAR ring
ENCODING 730
SWIDTH 527 0
DWIDTH 17 0
BBX 9 6 4 17
BITMAP
1BF800
781B00
B00740
B00740
781B00
1BF800
ENDCHAR
STARTCHAR ogonek
ENCODING 731
SWIDTH 527 0
DWIDTH 17 0
BBX 7 6 5 -6
BITMAP
0A00
7800
B000
E000
F418
2FF8
ENDCHAR
STARTCHAR tilde
ENCODING 732
SWIDTH 527 0
DWIDTH 17 0
BBX 11 3 3 18
BITMAP
2FA42C
BFFFF8
E06BE0
ENDCHAR
STARTCHAR hungarumlaut
ENCODING 733
SWIDTH 527 0
DWIDTH 17 0
BBX 11 4 4 18
BITMAP
018024
0BD1F8
7E0B90
A00900
ENDCHAR
STARTCHAR commaaccent
ENCODING 806
SWIDTH 527 0
DWIDTH 17 0
BBX 3 4 7 -6
BITMAP
78
B4
B0
E0
ENDCHAR
STARTCHAR mu
ENCODING 956
SWIDTH 705 0
DWIDTH 23 0
BBX 19 21 1 -6
BITMAP
00F0000074
00F00000B4
01E00000F0
02D00000F0
02D00001E0
03C00001E0
03800002D0
07800003C0
07400003C0
0B40000B80
0F80002F80
0FD000BB80
1EF407D780
1D7FFF4380
2D1BE403C0
3C00000000
3C00000000
7800000000
7400000000
B400000000
F000000000
ENDCHAR
STARTCHAR Wgrave
ENCODING 7808
SWIDTH 1266 0
DWIDTH 41 0
BBX 38 29 1 0
BITMAP
00000009000000000000
0000000FD00000000000
00000006F90000000000
000000002F8000000000
00000000028000000000
00000000000000000000
00000000000000000000
B80000001F80000000F0
7C0000002FC0000001E0
2D0000003ED0000002D0
1E00000079F0000007C0
0F000000B4F400000B80
0B400000F07800000F00
07C00001E03C00001E00
03D00003D02D00002D00
01E00007801E00003C00
00F0000B400F0000B800
00B4000F000B4000F400
0078001E0007C001E000
003D002D0002D002D000
002E003C0001E003C000
000F00780000F0078000
000B40F40000B40F4000
000781E00000781F0000
0003C2D000003C2D0000
0002E3C000002D3C0000
0000F78000000F780000
0000BF4000000BF40000
00007F00000007F00000
ENDCHAR
STARTCHAR wgrave
ENCODING 7809
SWIDTH 1266 0
DWIDTH 41 0
BBX 38 29 1 0
BITMAP
00000009000000000000
0000000FD00000000000
00000006F90000000000
000000002F8000000000
00000000028000000000
00000000000000000000
00000000000000000000
B80000001F80000000F0
7C0000002FC0000001E0
2D0000003ED0000002D0
1E00000079F0000007C0
0F000000B4F400000B80
0B400000F07800000F00
07C00001E03C00001E00
03D00003D02D00002D00
01E00007801E00003C00
00F0000B400F0000B800
00B4000F000B4000F400
0078001E0007C001E000
003D002D0002D002D000
002E003C0001E003C000
000F00780000F0078000
000B40F40000B40F4000
000781E00000781F0000
0003C2D000003C2D0000
0002E3C000002D3C0000
0000F78000000F780000
0000BF4000000BF40000
00007F00000007F00000
ENDCHAR
STARTCHAR Wacute
ENCODING 7810
SWIDTH 1266 0
DWIDTH 41 0
BBX 38 29 1 0
BITMAP
00000000000640000000
00000000002F80000000
0000000002FD00000000
000000001F9000000000
00000000190000000000
00000000000000000000
00000000000000000000
B80000001F80000000F0
7C0000002FC0000001E0
2D0000003ED0000002D0
1E00000079F0000007C0
0F000000B4F400000B80
0B400000F07800000F00
07C00001E03C00001E00
03D00003D02D00002D00
01E00007801E00003C00
00F0000B400F0000B800
00B4000F000B4000F400
0078001E0007C001E000
003D002D0002D002D000
002E003C0001E003C000
000F00780000F0078000
000B40F40000B40F4000
000781E00000781F0000
0003C2D000003C2D0000
0002E3C000002D3C0000
0000F78000000F780000
0000BF4000000BF40000
00007F00000007F00000
ENDCHAR
STARTCHAR wacute
ENCODING 7811
SWIDTH 1266 0
DWIDTH 41 0
BBX 38 29 1 0
BITMAP
00000000000640000000
00000000002F80000000
0000000002FD00000000
000000001F9000000000
00000000190000000000
00000000000000000000
00000000000000000000
B80000001F80000000F0
7C0000002FC0000001E0
2D0000003ED0000002D0
1E00000079F0000007C0
0F000000B4F400000B80
0B400000F07800000F00
07C00001E03C00001E00
03D00003D02D00002D00
01E00007801E00003C00
00F0000B400F0000B800
00B4000F000B4000F400
0078001E0007C001E000
003D002D0002D002D000
002E003C0001E003C000
000F00780000F0078000
000B40F40000B40F4000
000781E00000781F0000
0003C2D000003C2D0000
0002E3C000002D3C0000
0000F78000000F780000
0000BF4000000BF40000
00007F00000007F00000
ENDCHAR
STARTCHAR Wdieresis
ENCODING 7812
SWIDTH 1266 0
DWIDTH 41 0
BBX 38 26 1 0
BITMAP
00000003D02E00000000
00000003D02E00000000
00000000000000000000
00000000000000000000
B80000001F80000000F0
7C0000002FC0000001E0
2D0000003ED0000002D0
1E00000079F0000007C0
0F000000B4F400000B80
0B400000F07800000F00
07C00001E03C00001E00
03D00003D02D00002D00
01E00007801E00003C00
00F0000B400F0000B800
00B4000F000B4000F400
0078001E0007C001E000
003D002D0002D002D000
002E003C0001E003C000
000F00780000F0078000
000B40F40000B40F4000
000781E00000781F0000
0003C2D000003C2D0000
0002E3C000002D3C0000
0000F78000000F780000
0000BF4000000BF40000
00007F00000007F00000
ENDCHAR
STARTCHAR wdieresis
ENCODING 7813
SWIDTH 1266 0
DWIDTH 41 0
BBX 38 26 1 0
BITMAP
00000003D02E00000000
00000003D02E00000000
00000000000000000000
00000000000000000000
B80000001F80000000F0
7C0000002FC0000001E0
2D0000003ED0000002D0
1E00000079F0000007C0
0F000000B4F400000B80
0B400000F07800000F00
07C00001E03C00001E00
03D00003D02D00002D00
01E00007801E00003C00
00F0000B400F0000B800
00B4000F000B4000F400
0078001E0007C001E000
003D002D0002D002D000
002E003C0001E003C000
000F00780000F0078000
000B40F40000B40F4000
000781E00000781F0000
0003C2D000003C2D0000
0002E3C000002D3C0000
0000F78000000F780000
0000BF4000000BF40000
00007F00000007F00000
ENDCHAR
STARTCHAR Ygrave
ENCODING 7922
SWIDTH 763 0
DWIDTH 24 0
BBX 22 29 1 0
BITMAP
000900000000
000FD0000000
0006F9000000
00002F800000
000002800000
000000000000
000000000000
7800000001E0
2E00000007C0
0B4000000F40
03D000002D00
01F00000B800
00780001F000
002E0007C000
000F400F4000
0003D02E0000
0001F0B80000
0000B9F00000
00002FD00000
00000F400000
00000B400000
00000B400000
00000B400000
00000B400000
00000B400000
00000B400000
00000B400000
00000B400000
00000B400000
ENDCHAR
STARTCHAR ygrave
ENCODING 7923
SWIDTH 911 0
DWIDTH 29 0
BBX 23 29 3 0
BITMAP
000900000000
001FD0000000
0006F9000000
00002F800000
000002800000
000000000000
000000000000
F00000000078
F00000000078
F00000000078
F00000000078
F00000000078
F00000000078
F00000000078
F000000000F8
B400000002F8
780000000BF8
3D0000002FB8
1F800001FC78
0BF9005FE078
01FFFFFE4078
001AFFA400B4
0000000000F4
0000000001F0
0000000007D0
900000006F80
FE94005BFD00
6FFFFFFFE000
01ABFFE90000
ENDCHAR
STARTCHAR endash
ENCODING 8211
SWIDTH 419 0
DWIDTH 13 0
BBX 13 2 0 10
BITMAP
7FFFFF80
7FFFFF80
ENDCHAR
STARTCHAR emdash
ENCODING 8212
SWIDTH 1000 0
DWIDTH 32 0
BBX 32 2 0 10
BITMAP
FFFFFFFFFFFFFFFF
FFFFFFFFFFFFFFFF
ENDCHAR
STARTCHAR quoteleft
ENCODING 8216
SWIDTH 163 0
DWIDTH 5 0
BBX 3 6 1 16
BITMAP
1C
2C
38
78
B4
F4
ENDCHAR
STARTCHAR quoteright
ENCODING 8217
SWIDTH 163 0
DWIDTH 5 0
BBX 3 6 1 16
BITMAP
3C
78
78
B4
B0
E0
ENDCHAR
STARTCHAR quotesinglbase
ENCODING 8218
SWIDTH 163 0
DWIDTH 5 0
BBX 3 6 1 -3
BITMAP
3C
78
78
B4
B0
E0
ENDCHAR
STARTCHAR quotedblleft
ENCODING 8220
SWIDTH 303 0
DWIDTH 10 0
BBX 8 6 1 16
BITMAP
1C0E
2C1D
382D
783C
B43C
F478
ENDCHAR
STARTCHAR quotedblright
ENCODING 8221
SWIDTH 303 0
DWIDTH 10 0
BBX 8 6 1 16
BITMAP
3C2E
782D
783C
B438
B074
E070
ENDCHAR
STARTCHAR quotedblbase
ENCODING 8222
SWIDTH 303 0
DWIDTH 10 0
BBX 8 6 1 -3
BITMAP
3C2E
782D
783C
B438
B074
E070
ENDCHAR
STARTCHAR dagger
ENCODING 8224
SWIDTH 500 0
DWIDTH 16 0
BBX 10 22 3 0
BITMAP
00F000
00F000
00F000
00F000
00F000
00F000
FFFFF0
FFFFF0
00F000
00F000
00F000
00F000
00F000
00F000
00F000
00F000
00F000
00F000
00F000
00F000
00F000
00F000
ENDCHAR
STARTCHAR daggerdbl
ENCODING 8225
SWIDTH 500 0
DWIDTH 16 0
BBX 10 22 3 0
BITMAP
00F000
00F000
00F000
00F000
00F000
00F000
FFFFF0
FFFFF0
00F000
00F000
00F000
00F000
00F000
FFFFF0
FFFFF0
00F000
00F000
00F000
00F000
00F000
00F000
00F000
ENDCHAR
STARTCHAR bullet
ENCODING 8226
SWIDTH 352 0
DWIDTH 11 0
BBX 7 6 2 8
BITMAP
1B90
3FF4
7FF8
7FF8
3FF4
1B90
ENDCHAR
STARTCHAR ellipsis
ENCODING 8230
SWIDTH 555 0
DWIDTH 18 0
BBX 15 3 1 0
BITMAP
7D07D0BC
7D07D0BC
7D07D0BC
ENDCHAR
STARTCHAR perthousand
ENCODING 8240
SWIDTH 1401 0
DWIDTH 45 0
BBX 43 22 1 0
BITMAP
01BF9000002D0000000000
0B80780000780000000000
1D000E0001F00000000000
3C00074003C00000000000
780007800B400000000000
740003802E000000000000
7800078078000000000000
3C000740F0000000000000
1D000E03D0000000000000
0B80780B40000000000000
01BF901E00000000000000
0000007C06FE40001BF800
000000F02E41F001F41B40
000002D078003C03C002D0
00000B80F0001D0B4000F0
00001E01E0000E0B0000B0
00003C01E0000F0F0000B4
0000F401E0000E0B0000B0
0002D000F0001D0B4000F0
0007800078003C03C002D0
001F00001E41F001F41B40
003C000006FE40001BF800
ENDCHAR
STARTCHAR guilsinglleft
ENCODING 8249
SWIDTH 257 0
DWIDTH 8 0
BBX 6 11 1 5
BITMAP
0090
02E0
0B80
2E00
7C00
B400
7C00
2E00
0B80
02E0
0090
ENDCHAR
STARTCHAR guilsinglright
ENCODING 8250
SWIDTH 257 0
DWIDTH 8 0
BBX 6 11 1 5
BITMAP
2000
7C00
1F00
0B80
02E0
00F0
02E0
0B80
1F00
7C00
2000
ENDCHAR
STARTCHAR fraction
ENCODING 8260
SWIDTH 200 0
DWIDTH 6 0
BBX 19 22 -6 0
BITMAP
00000000B4
00000001E0
0000000780
0000000F00
0000002D00
000000B800
000001E000
000003C000
00000F4000
00002D0000
0000780000
0001E00000
0003C00000
000B400000
002E000000
0078000000
01F0000000
03D0000000
0B40000000
1E00000000
7C00000000
F000000000
ENDCHAR
STARTCHAR Euro
ENCODING 8364
SWIDTH 833 0
DWIDTH 27 0
BBX 24 22 1 0
BITMAP
000006BFE900
0000BFFFFFE4
0007F9401AFD
001F9000006D
003E00000005
00B800000000
00F000000000
01E000000000
BFFFFFFFF000
FFFFFFFFE000
03C000000000
03C000000000
BFFFFFFF4000
FFFFFFFF4000
01E000000000
00F000000000
00B800000000
003D00000005
001F8000006D
0007F9401AFD
0000BFFFFFE4
000006BFE900
ENDCHAR
STARTCHAR trademark
ENCODING 8482
SWIDTH 773 0
DWIDTH 25 0
BBX 21 9 1 13
BITMAP
FFFE3C000B80
03403E000F80
03403B402B80
034036803780
034034D0A380
034034A0C380
034034368380
0340342F0380
0340340E0380
ENDCHAR
STARTCHAR partialdiff
ENCODING 8706
SWIDTH 790 0
DWIDTH 25 0
BBX 22 22 2 0
BITMAP
0006BFF90000
002FFFFFE000
00294016F800
000000007E00
000000000F40
000000000780
0000000003C0
0000000002D0
001AFFA402D0
01FFFFFF82D0
0BF9005BF6D0
2F400000BFD0
7C0000001FC0
B40000000780
F00000000B40
F00000000F00
F00000002E00
B8000000B800
7D000007F000
1FE4016F8000
07FFFFFD0000
006BFE900000
ENDCHAR
STARTCHAR minus
ENCODING 8722
SWIDTH 634 0
DWIDTH 20 0
BBX 16 2 2 10
BITMAP
7FFFFFFE
7FFFFFFE
ENDCHAR
STARTCHAR uni2215
ENCODING 8725
SWIDTH 200 0
DWIDTH 6 0
BBX 19 22 -6 0
BITMAP
00000000B4
00000001E0
0000000780
0000000F00
0000002D00
000000B800
000001E000
000003C000
00000F4000
00002D0000
0000780000
0001E00000
0003C00000
000B400000
002E000000
0078000000
01F0000000
03D0000000
0B40000000
1E00000000
7C00000000
F000000000
ENDCHAR
STARTCHAR approxequal
ENCODING 8776
SWIDTH 634 0
DWIDTH 20 0
BBX 16 8 2 7
BITMAP
1BFA5006
BFFFFFFF
A405AFF8
00000000
00000000
1BFA5006
BFFFFFFF
A405AFF9
ENDCHAR
STARTCHAR notequal
ENCODING 8800
SWIDTH 634 0
DWIDTH 20 0
BBX 16 18 2 2
BITMAP
00001E00
00002D00
00002C00
00003800
00007400
7FFFFFFE
7FFFFFFE
0001E000
0002C000
00038000
00074000
7FFFFFFE
7FFFFFFE
001E0000
002D0000
003C0000
00780000
00B40000
ENDCHAR
STARTCHAR lessequal
ENCODING 8804
SWIDTH 634 0
DWIDTH 20 0
BBX 16 16 2 2
BITMAP
0000000A
000001BE
00006FE4
0006F900
01BF4000
1BE40000
BD000000
1BE40000
01BE4000
0006F900
00006FE4
000001BE
0000000A
00000000
7FFFFFFE
7FFFFFFE
ENDCHAR
STARTCHAR greaterequal
ENCODING 8805
SWIDTH 634 0
DWIDTH 20 0
BBX 16 16 2 2
BITMAP
64000000
7F400000
1BF90000
006FE000
0001BE40
000006F8
0000007F
000006F8
0001BE40
006FE000
1BF90000
7F400000
64000000
00000000
7FFFFFFE
7FFFFFFE
ENDCHAR
STARTCHAR fi
ENCODING 64257
SWIDTH 1104 0
DWIDTH 35 0
BBX 29 22 3 0
BITMAP
001AFFFFFFD00780
01FFFFFFFFD00780
0BF9400000000780
1F80000000000780
3D00000000000780
7C00000000000780
7800000000000780
7800000000000780
7800000000000780
7800000000000780
7FFFFFFFFFC00780
7FFFFFFFFFC00780
7800000000000780
7800000000000780
7800000000000780
7800000000000780
7800000000000780
7800000000000780
7800000000000780
7800000000000780
7800000000000780
7800000000000780
ENDCHAR
STARTCHAR fl
ENCODING 64258
SWIDTH 1527 0
DWIDTH 49 0
BBX 46 22 3 0
BITMAP
001AFFFFFFD0078000000000
01FFFFFFFFD0078000000000
0BF940000000078000000000
1F8000000000078000000000
3D0000000000078000000000
7C0000000000078000000000
780000000000078000000000
780000000000078000000000
780000000000078000000000
780000000000078000000000
7FFFFFFFFFC0078000000000
7FFFFFFFFFC0078000000000
780000000000078000000000
780000000000078000000000
780000000000078000000000
780000000000078000000000
78000000000003C000000000
78000000000003D000000000
78000000000002E000000000
78000000000000FE40000000
780000000000007FFFFFFFE0
7800000000000006BFFFFFE0
ENDCHAR
STARTCHAR .notdef
ENCODING -1
SWIDTH 1000 0
DWIDTH 32 0
BBX 1 1 0 0
BITMAP
00
ENDCHAR
ENDFONT
